{
	"asset":{
		"generator":"Khronos glTF Blender I/O v4.2.60",
		"version":"2.0"
	},
	"scene":0,
	"scenes":[
		{
			"name":"Scene",
			"nodes":[
				0,
				1,
				2
			]
		}
	],
	"nodes":[
		{
			"mesh":0,
			"name":"1.010",
			"rotation":[
				0.7071068286895752,
				0,
				0,
				0.7071068286895752
			],
			"scale":[
				4.310130596160889,
				2.17391300201416,
				4.310131549835205
			]
		},
		{
			"mesh":1,
			"name":"1.011",
			"rotation":[
				0.7071068286895752,
				0,
				0,
				0.7071068286895752
			],
			"scale":[
				4.310130596160889,
				2.17391300201416,
				4.310131549835205
			]
		},
		{
			"mesh":2,
			"name":"1.012",
			"rotation":[
				0.7071068286895752,
				0,
				0,
				0.7071068286895752
			],
			"scale":[
				4.310130596160889,
				2.17391300201416,
				4.310131549835205
			]
		}
	],
	"materials":[
		{
			"doubleSided":true,
			"name":"Material.002",
			"pbrMetallicRoughness":{
				"baseColorFactor":[
					0.7758182287216187,
					0.18116439878940582,
					0.0030353262554854155,
					1
				],
				"metallicFactor":0,
				"roughnessFactor":0.5
			}
		}
	],
	"meshes":[
		{
			"name":"Text.022",
			"primitives":[
				{
					"attributes":{
						"POSITION":0,
						"NORMAL":1,
						"TEXCOORD_0":2
					},
					"indices":3,
					"material":0
				}
			]
		},
		{
			"name":"Text.023",
			"primitives":[
				{
					"attributes":{
						"POSITION":4,
						"NORMAL":5,
						"TEXCOORD_0":6
					},
					"indices":7,
					"material":0
				}
			]
		},
		{
			"name":"Text.024",
			"primitives":[
				{
					"attributes":{
						"POSITION":8,
						"NORMAL":9,
						"TEXCOORD_0":10
					},
					"indices":11,
					"material":0
				}
			]
		}
	],
	"accessors":[
		{
			"bufferView":0,
			"componentType":5126,
			"count":2347,
			"max":[
				-0.07018566131591797,
				0.007459942251443863,
				-0.029796399176120758
			],
			"min":[
				-0.10426643490791321,
				0.005459941923618317,
				-0.0373813658952713
			],
			"type":"VEC3"
		},
		{
			"bufferView":1,
			"componentType":5126,
			"count":2347,
			"type":"VEC3"
		},
		{
			"bufferView":2,
			"componentType":5126,
			"count":2347,
			"type":"VEC2"
		},
		{
			"bufferView":3,
			"componentType":5123,
			"count":6792,
			"type":"SCALAR"
		},
		{
			"bufferView":4,
			"componentType":5126,
			"count":2604,
			"max":[
				-0.03850506618618965,
				0.007459942251443863,
				-0.029796399176120758
			],
			"min":[
				-0.0677667185664177,
				0.005459941923618317,
				-0.036809444427490234
			],
			"type":"VEC3"
		},
		{
			"bufferView":5,
			"componentType":5126,
			"count":2604,
			"type":"VEC3"
		},
		{
			"bufferView":6,
			"componentType":5126,
			"count":2604,
			"type":"VEC2"
		},
		{
			"bufferView":7,
			"componentType":5123,
			"count":7608,
			"type":"SCALAR"
		},
		{
			"bufferView":8,
			"componentType":5126,
			"count":7108,
			"max":[
				0.019549451768398285,
				0.007459942251443863,
				-0.02729308046400547
			],
			"min":[
				-0.0356735959649086,
				0.005459941923618317,
				-0.0373813658952713
			],
			"type":"VEC3"
		},
		{
			"bufferView":9,
			"componentType":5126,
			"count":7108,
			"type":"VEC3"
		},
		{
			"bufferView":10,
			"componentType":5126,
			"count":7108,
			"type":"VEC2"
		},
		{
			"bufferView":11,
			"componentType":5123,
			"count":20856,
			"type":"SCALAR"
		}
	],
	"bufferViews":[
		{
			"buffer":0,
			"byteLength":28164,
			"byteOffset":0,
			"target":34962
		},
		{
			"buffer":0,
			"byteLength":28164,
			"byteOffset":28164,
			"target":34962
		},
		{
			"buffer":0,
			"byteLength":18776,
			"byteOffset":56328,
			"target":34962
		},
		{
			"buffer":0,
			"byteLength":13584,
			"byteOffset":75104,
			"target":34963
		},
		{
			"buffer":0,
			"byteLength":31248,
			"byteOffset":88688,
			"target":34962
		},
		{
			"buffer":0,
			"byteLength":31248,
			"byteOffset":119936,
			"target":34962
		},
		{
			"buffer":0,
			"byteLength":20832,
			"byteOffset":151184,
			"target":34962
		},
		{
			"buffer":0,
			"byteLength":15216,
			"byteOffset":172016,
			"target":34963
		},
		{
			"buffer":0,
			"byteLength":85296,
			"byteOffset":187232,
			"target":34962
		},
		{
			"buffer":0,
			"byteLength":85296,
			"byteOffset":272528,
			"target":34962
		},
		{
			"buffer":0,
			"byteLength":56864,
			"byteOffset":357824,
			"target":34962
		},
		{
			"buffer":0,
			"byteLength":41712,
			"byteOffset":414688,
			"target":34963
		}
	],
	"buffers":[
		{
			"byteLength":456400,
			"uri":"Soru1.1.bin"
		}
	]
}
