{
	"asset":{
		"generator":"Khronos glTF Blender I/O v4.2.60",
		"version":"2.0"
	},
	"scene":0,
	"scenes":[
		{
			"name":"Scene",
			"nodes":[
				1
			]
		}
	],
	"nodes":[
		{
			"mesh":0,
			"name":"Cube.036",
			"rotation":[
				-1,
				0,
				0,
				4.331257628109597e-07
			],
			"scale":[
				1,
				0.5430002212524414,
				1
			],
			"translation":[
				0.03734663128852844,
				0.45110321044921875,
				-0.03223104402422905
			]
		},
		{
			"children":[
				0
			],
			"name":"Empty.006",
			"scale":[
				1,
				0.009999999776482582,
				1
			],
			"translation":[
				-0.03734663128852844,
				-0.4511029124259949,
				0.03223104029893875
			]
		}
	],
	"animations":[
		{
			"channels":[
				{
					"sampler":0,
					"target":{
						"node":1,
						"path":"scale"
					}
				}
			],
			"name":"Empty.006Action",
			"samplers":[
				{
					"input":3,
					"interpolation":"LINEAR",
					"output":4
				}
			]
		}
	],
	"materials":[
		{
			"doubleSided":true,
			"name":"PencereSolar.008",
			"pbrMetallicRoughness":{
				"baseColorFactor":[
					0.9822452664375305,
					0.38132646679878235,
					0.0030353753827512264,
					1
				],
				"metallicFactor":0,
				"roughnessFactor":0.5
			}
		}
	],
	"meshes":[
		{
			"name":"Cube.004",
			"primitives":[
				{
					"attributes":{
						"POSITION":0,
						"NORMAL":1
					},
					"indices":2,
					"material":0
				}
			]
		}
	],
	"accessors":[
		{
			"bufferView":0,
			"componentType":5126,
			"count":24,
			"max":[
				-0.031096607446670532,
				0.8307600617408752,
				-0.027231410145759583
			],
			"min":[
				-0.04359659552574158,
				0.7087525129318237,
				-0.03723140060901642
			],
			"type":"VEC3"
		},
		{
			"bufferView":1,
			"componentType":5126,
			"count":24,
			"type":"VEC3"
		},
		{
			"bufferView":2,
			"componentType":5123,
			"count":36,
			"type":"SCALAR"
		},
		{
			"bufferView":3,
			"componentType":5126,
			"count":22,
			"max":[
				0.875
			],
			"min":[
				0
			],
			"type":"SCALAR"
		},
		{
			"bufferView":4,
			"componentType":5126,
			"count":22,
			"type":"VEC3"
		}
	],
	"bufferViews":[
		{
			"buffer":0,
			"byteLength":288,
			"byteOffset":0,
			"target":34962
		},
		{
			"buffer":0,
			"byteLength":288,
			"byteOffset":288,
			"target":34962
		},
		{
			"buffer":0,
			"byteLength":72,
			"byteOffset":576,
			"target":34963
		},
		{
			"buffer":0,
			"byteLength":88,
			"byteOffset":648
		},
		{
			"buffer":0,
			"byteLength":264,
			"byteOffset":736
		}
	],
	"buffers":[
		{
			"byteLength":1000,
			"uri":"cizgi5.bin"
		}
	]
}
