{
	"asset":{
		"generator":"Khronos glTF Blender I/O v4.2.60",
		"version":"2.0"
	},
	"scene":0,
	"scenes":[
		{
			"name":"Scene",
			"nodes":[
				1
			]
		}
	],
	"nodes":[
		{
			"mesh":0,
			"name":"Cube.035",
			"rotation":[
				-0.70710688829422,
				0.7071066498756409,
				0,
				2.753575358838134e-07
			],
			"translation":[
				0.16485595703125,
				0.4448528289794922,
				-0.03223104029893875
			]
		},
		{
			"children":[
				0
			],
			"name":"Empty.004",
			"scale":[
				0.0009999871253967285,
				1,
				1
			],
			"translation":[
				-0.32972100377082825,
				-0.4448528289794922,
				0.03223104029893875
			]
		}
	],
	"animations":[
		{
			"channels":[
				{
					"sampler":0,
					"target":{
						"node":1,
						"path":"scale"
					}
				}
			],
			"name":"Empty.001Action.001",
			"samplers":[
				{
					"input":3,
					"interpolation":"LINEAR",
					"output":4
				}
			]
		}
	],
	"materials":[
		{
			"doubleSided":true,
			"name":"PencereSolar.008",
			"pbrMetallicRoughness":{
				"baseColorFactor":[
					0.9822452664375305,
					0.38132646679878235,
					0.0030353753827512264,
					1
				],
				"metallicFactor":0,
				"roughnessFactor":0.5
			}
		}
	],
	"meshes":[
		{
			"name":"Cube.002",
			"primitives":[
				{
					"attributes":{
						"POSITION":0,
						"NORMAL":1
					},
					"indices":2,
					"material":0
				}
			]
		}
	],
	"accessors":[
		{
			"bufferView":0,
			"componentType":5126,
			"count":24,
			"max":[
				0.4511029124259949,
				0.16486051678657532,
				-0.0272311270236969
			],
			"min":[
				0.43860292434692383,
				0.046490371227264404,
				-0.037231117486953735
			],
			"type":"VEC3"
		},
		{
			"bufferView":1,
			"componentType":5126,
			"count":24,
			"type":"VEC3"
		},
		{
			"bufferView":2,
			"componentType":5123,
			"count":36,
			"type":"SCALAR"
		},
		{
			"bufferView":3,
			"componentType":5126,
			"count":19,
			"max":[
				0.75
			],
			"min":[
				0
			],
			"type":"SCALAR"
		},
		{
			"bufferView":4,
			"componentType":5126,
			"count":19,
			"type":"VEC3"
		}
	],
	"bufferViews":[
		{
			"buffer":0,
			"byteLength":288,
			"byteOffset":0,
			"target":34962
		},
		{
			"buffer":0,
			"byteLength":288,
			"byteOffset":288,
			"target":34962
		},
		{
			"buffer":0,
			"byteLength":72,
			"byteOffset":576,
			"target":34963
		},
		{
			"buffer":0,
			"byteLength":76,
			"byteOffset":648
		},
		{
			"buffer":0,
			"byteLength":228,
			"byteOffset":724
		}
	],
	"buffers":[
		{
			"byteLength":952,
			"uri":"cizgi4.bin"
		}
	]
}
