{
	"asset":{
		"generator":"Khronos glTF Blender I/O v4.2.60",
		"version":"2.0"
	},
	"scene":0,
	"scenes":[
		{
			"name":"Scene",
			"nodes":[
				0,
				1,
				2,
				3
			]
		}
	],
	"nodes":[
		{
			"mesh":0,
			"name":"Building_042.022"
		},
		{
			"mesh":1,
			"name":"Building_051.022"
		},
		{
			"mesh":2,
			"name":"Building_056.022"
		},
		{
			"mesh":3,
			"name":"Plane",
			"rotation":[
				0.7071068286895752,
				0,
				0,
				0.7071068286895752
			],
			"scale":[
				0.4891304075717926,
				2.17391300201416,
				0.23999999463558197
			]
		}
	],
	"materials":[
		{
			"doubleSided":true,
			"name":"PencereSolar.009",
			"pbrMetallicRoughness":{
				"baseColorFactor":[
					0.9822452664375305,
					0.38132646679878235,
					0.0030353753827512264,
					1
				],
				"metallicFactor":0,
				"roughnessFactor":0.5
			}
		},
		{
			"doubleSided":true,
			"name":"Material.002",
			"pbrMetallicRoughness":{
				"baseColorFactor":[
					0.7758182287216187,
					0.18116439878940582,
					0.0030353262554854155,
					1
				],
				"metallicFactor":0,
				"roughnessFactor":0.5
			}
		}
	],
	"meshes":[
		{
			"name":"Building_042_Mesh.038",
			"primitives":[
				{
					"attributes":{
						"POSITION":0,
						"NORMAL":1
					},
					"indices":2,
					"material":0
				}
			]
		},
		{
			"name":"Building_051_Mesh.038",
			"primitives":[
				{
					"attributes":{
						"POSITION":3,
						"NORMAL":4
					},
					"indices":5,
					"material":0
				}
			]
		},
		{
			"name":"Building_056_Mesh.036",
			"primitives":[
				{
					"attributes":{
						"POSITION":6,
						"NORMAL":7
					},
					"indices":8,
					"material":0
				}
			]
		},
		{
			"name":"Plane.019",
			"primitives":[
				{
					"attributes":{
						"POSITION":9,
						"NORMAL":10,
						"TEXCOORD_0":11
					},
					"indices":12,
					"material":1
				}
			]
		}
	],
	"accessors":[
		{
			"bufferView":0,
			"componentType":5126,
			"count":28,
			"max":[
				-0.09456530213356018,
				-0.322826087474823,
				0.05317391827702522
			],
			"min":[
				-0.13369575142860413,
				-0.34999996423721313,
				0.05317391827702522
			],
			"type":"VEC3"
		},
		{
			"bufferView":1,
			"componentType":5126,
			"count":28,
			"type":"VEC3"
		},
		{
			"bufferView":2,
			"componentType":5123,
			"count":42,
			"type":"SCALAR"
		},
		{
			"bufferView":3,
			"componentType":5126,
			"count":63,
			"max":[
				-0.018478363752365112,
				-0.3065216839313507,
				0.05317385122179985
			],
			"min":[
				-0.05760875344276428,
				-0.34565213322639465,
				0.05317385122179985
			],
			"type":"VEC3"
		},
		{
			"bufferView":4,
			"componentType":5126,
			"count":63,
			"type":"VEC3"
		},
		{
			"bufferView":5,
			"componentType":5123,
			"count":93,
			"type":"SCALAR"
		},
		{
			"bufferView":6,
			"componentType":5126,
			"count":56,
			"max":[
				0.057608574628829956,
				-0.3065217137336731,
				0.042304281145334244
			],
			"min":[
				0.01847812533378601,
				-0.34565216302871704,
				0.042304281145334244
			],
			"type":"VEC3"
		},
		{
			"bufferView":7,
			"componentType":5126,
			"count":56,
			"type":"VEC3"
		},
		{
			"bufferView":8,
			"componentType":5123,
			"count":84,
			"type":"SCALAR"
		},
		{
			"bufferView":9,
			"componentType":5126,
			"count":4,
			"max":[
				0.1746348738670349,
				-4.7285027449106565e-08,
				1.605581521987915
			],
			"min":[
				-0.3253651261329651,
				-4.7285027449106565e-08,
				1.105581521987915
			],
			"type":"VEC3"
		},
		{
			"bufferView":10,
			"componentType":5126,
			"count":4,
			"type":"VEC3"
		},
		{
			"bufferView":11,
			"componentType":5126,
			"count":4,
			"type":"VEC2"
		},
		{
			"bufferView":12,
			"componentType":5123,
			"count":6,
			"type":"SCALAR"
		}
	],
	"bufferViews":[
		{
			"buffer":0,
			"byteLength":336,
			"byteOffset":0,
			"target":34962
		},
		{
			"buffer":0,
			"byteLength":336,
			"byteOffset":336,
			"target":34962
		},
		{
			"buffer":0,
			"byteLength":84,
			"byteOffset":672,
			"target":34963
		},
		{
			"buffer":0,
			"byteLength":756,
			"byteOffset":756,
			"target":34962
		},
		{
			"buffer":0,
			"byteLength":756,
			"byteOffset":1512,
			"target":34962
		},
		{
			"buffer":0,
			"byteLength":186,
			"byteOffset":2268,
			"target":34963
		},
		{
			"buffer":0,
			"byteLength":672,
			"byteOffset":2456,
			"target":34962
		},
		{
			"buffer":0,
			"byteLength":672,
			"byteOffset":3128,
			"target":34962
		},
		{
			"buffer":0,
			"byteLength":168,
			"byteOffset":3800,
			"target":34963
		},
		{
			"buffer":0,
			"byteLength":48,
			"byteOffset":3968,
			"target":34962
		},
		{
			"buffer":0,
			"byteLength":48,
			"byteOffset":4016,
			"target":34962
		},
		{
			"buffer":0,
			"byteLength":32,
			"byteOffset":4064,
			"target":34962
		},
		{
			"buffer":0,
			"byteLength":12,
			"byteOffset":4096,
			"target":34963
		}
	],
	"buffers":[
		{
			"byteLength":4108,
			"uri":"isiklar.bin"
		}
	]
}
