{
	"asset":{
		"generator":"Khronos glTF Blender I/O v4.2.60",
		"version":"2.0"
	},
	"scene":0,
	"scenes":[
		{
			"name":"Scene",
			"nodes":[
				1
			]
		}
	],
	"nodes":[
		{
			"mesh":0,
			"name":"Cube.027",
			"translation":[
				0.329721063375473,
				1.0009244680404663,
				-0.03223104029893875
			]
		},
		{
			"children":[
				0
			],
			"name":"Empty.002",
			"translation":[
				-0.45002493262290955,
				-1.0009244680404663,
				0.03223104029893875
			]
		}
	],
	"animations":[
		{
			"channels":[
				{
					"sampler":0,
					"target":{
						"node":1,
						"path":"translation"
					}
				},
				{
					"sampler":1,
					"target":{
						"node":1,
						"path":"rotation"
					}
				}
			],
			"name":"Empty.002Action",
			"samplers":[
				{
					"input":3,
					"interpolation":"LINEAR",
					"output":4
				},
				{
					"input":3,
					"interpolation":"LINEAR",
					"output":5
				}
			]
		}
	],
	"materials":[
		{
			"doubleSided":true,
			"name":"PencereSolar.003",
			"pbrMetallicRoughness":{
				"baseColorFactor":[
					0.9822452664375305,
					0.38132646679878235,
					0.0030353753827512264,
					1
				],
				"metallicFactor":0,
				"roughnessFactor":0.5
			}
		}
	],
	"meshes":[
		{
			"name":"Cube.009",
			"primitives":[
				{
					"attributes":{
						"POSITION":0,
						"NORMAL":1
					},
					"indices":2,
					"material":0
				}
			]
		}
	],
	"accessors":[
		{
			"bufferView":0,
			"componentType":5126,
			"count":48,
			"max":[
				-0.3146950304508209,
				-0.9797114133834839,
				0.037231042981147766
			],
			"min":[
				-0.3447470963001251,
				-1.0221376419067383,
				0.027231039479374886
			],
			"type":"VEC3"
		},
		{
			"bufferView":1,
			"componentType":5126,
			"count":48,
			"type":"VEC3"
		},
		{
			"bufferView":2,
			"componentType":5123,
			"count":72,
			"type":"SCALAR"
		},
		{
			"bufferView":3,
			"componentType":5126,
			"count":127,
			"max":[
				5.25
			],
			"min":[
				0
			],
			"type":"SCALAR"
		},
		{
			"bufferView":4,
			"componentType":5126,
			"count":127,
			"type":"VEC3"
		},
		{
			"bufferView":5,
			"componentType":5126,
			"count":127,
			"type":"VEC4"
		}
	],
	"bufferViews":[
		{
			"buffer":0,
			"byteLength":576,
			"byteOffset":0,
			"target":34962
		},
		{
			"buffer":0,
			"byteLength":576,
			"byteOffset":576,
			"target":34962
		},
		{
			"buffer":0,
			"byteLength":144,
			"byteOffset":1152,
			"target":34963
		},
		{
			"buffer":0,
			"byteLength":508,
			"byteOffset":1296
		},
		{
			"buffer":0,
			"byteLength":1524,
			"byteOffset":1804
		},
		{
			"buffer":0,
			"byteLength":2032,
			"byteOffset":3328
		}
	],
	"buffers":[
		{
			"byteLength":5360,
			"uri":"ok.bin"
		}
	]
}
