{
	"asset":{
		"generator":"Khronos glTF Blender I/O v4.2.60",
		"version":"2.0"
	},
	"scene":0,
	"scenes":[
		{
			"name":"Scene",
			"nodes":[
				0,
				1,
				2,
				3,
				4,
				5,
				6,
				7,
				8,
				9,
				10,
				11,
				12,
				13,
				14,
				15,
				16,
				17,
				18,
				19,
				20
			]
		}
	],
	"nodes":[
		{
			"mesh":0,
			"name":"Building_031.016"
		},
		{
			"mesh":1,
			"name":"Building_031.017"
		},
		{
			"mesh":2,
			"name":"Building_031.018"
		},
		{
			"mesh":3,
			"name":"Building_040.016"
		},
		{
			"mesh":4,
			"name":"Building_040.017"
		},
		{
			"mesh":5,
			"name":"Building_040.018"
		},
		{
			"mesh":6,
			"name":"Building_042.016"
		},
		{
			"mesh":7,
			"name":"Building_042.017"
		},
		{
			"mesh":8,
			"name":"Building_042.018"
		},
		{
			"mesh":9,
			"name":"Building_051.016"
		},
		{
			"mesh":10,
			"name":"Building_051.017"
		},
		{
			"mesh":11,
			"name":"Building_051.018"
		},
		{
			"mesh":12,
			"name":"Building_053.016"
		},
		{
			"mesh":13,
			"name":"Building_053.017"
		},
		{
			"mesh":14,
			"name":"Building_053.018"
		},
		{
			"mesh":15,
			"name":"Building_067.016"
		},
		{
			"mesh":16,
			"name":"Building_067.017"
		},
		{
			"mesh":17,
			"name":"Building_067.018"
		},
		{
			"mesh":18,
			"name":"Building_082.014"
		},
		{
			"mesh":19,
			"name":"Building_082.015"
		},
		{
			"mesh":20,
			"name":"Building_082.016"
		}
	],
	"materials":[
		{
			"doubleSided":true,
			"name":"BinaGrid",
			"pbrMetallicRoughness":{
				"baseColorFactor":[
					0.2874388098716736,
					0.3371638357639313,
					0.4178852438926697,
					1
				],
				"metallicFactor":0,
				"roughnessFactor":0.5
			}
		},
		{
			"doubleSided":true,
			"name":"PencereGrid",
			"pbrMetallicRoughness":{
				"baseColorFactor":[
					0.1499587893486023,
					0.17464761435985565,
					0.2122308313846588,
					1
				],
				"metallicFactor":0,
				"roughnessFactor":0.699999988079071
			}
		},
		{
			"doubleSided":true,
			"name":"Kap\u0131Grid",
			"pbrMetallicRoughness":{
				"baseColorFactor":[
					0.2874388098716736,
					0.3371638357639313,
					0.4178852438926697,
					1
				],
				"metallicFactor":0,
				"roughnessFactor":0.699999988079071
			}
		}
	],
	"meshes":[
		{
			"name":"Building_031_Mesh.018",
			"primitives":[
				{
					"attributes":{
						"POSITION":0,
						"NORMAL":1
					},
					"indices":2,
					"material":0
				}
			]
		},
		{
			"name":"Building_031_Mesh.019",
			"primitives":[
				{
					"attributes":{
						"POSITION":3,
						"NORMAL":4
					},
					"indices":5,
					"material":1
				}
			]
		},
		{
			"name":"Building_031_Mesh.020",
			"primitives":[
				{
					"attributes":{
						"POSITION":6,
						"NORMAL":7
					},
					"indices":8,
					"material":2
				}
			]
		},
		{
			"name":"Building_040_Mesh.018",
			"primitives":[
				{
					"attributes":{
						"POSITION":9,
						"NORMAL":10
					},
					"indices":11,
					"material":0
				}
			]
		},
		{
			"name":"Building_040_Mesh.019",
			"primitives":[
				{
					"attributes":{
						"POSITION":12,
						"NORMAL":13
					},
					"indices":14,
					"material":1
				}
			]
		},
		{
			"name":"Building_040_Mesh.020",
			"primitives":[
				{
					"attributes":{
						"POSITION":15,
						"NORMAL":16
					},
					"indices":8,
					"material":2
				}
			]
		},
		{
			"name":"Building_042_Mesh.018",
			"primitives":[
				{
					"attributes":{
						"POSITION":17,
						"NORMAL":18
					},
					"indices":19,
					"material":0
				}
			]
		},
		{
			"name":"Building_042_Mesh.019",
			"primitives":[
				{
					"attributes":{
						"POSITION":20,
						"NORMAL":21
					},
					"indices":5,
					"material":1
				}
			]
		},
		{
			"name":"Building_042_Mesh.020",
			"primitives":[
				{
					"attributes":{
						"POSITION":22,
						"NORMAL":23
					},
					"indices":8,
					"material":2
				}
			]
		},
		{
			"name":"Building_051_Mesh.018",
			"primitives":[
				{
					"attributes":{
						"POSITION":24,
						"NORMAL":25
					},
					"indices":26,
					"material":0
				}
			]
		},
		{
			"name":"Building_051_Mesh.019",
			"primitives":[
				{
					"attributes":{
						"POSITION":27,
						"NORMAL":28
					},
					"indices":29,
					"material":1
				}
			]
		},
		{
			"name":"Building_051_Mesh.020",
			"primitives":[
				{
					"attributes":{
						"POSITION":30,
						"NORMAL":31
					},
					"indices":8,
					"material":2
				}
			]
		},
		{
			"name":"Building_053_Mesh.018",
			"primitives":[
				{
					"attributes":{
						"POSITION":32,
						"NORMAL":33
					},
					"indices":34,
					"material":0
				}
			]
		},
		{
			"name":"Building_053_Mesh.019",
			"primitives":[
				{
					"attributes":{
						"POSITION":35,
						"NORMAL":36
					},
					"indices":37,
					"material":1
				}
			]
		},
		{
			"name":"Building_053_Mesh.020",
			"primitives":[
				{
					"attributes":{
						"POSITION":38,
						"NORMAL":39
					},
					"indices":8,
					"material":2
				}
			]
		},
		{
			"name":"Building_067_Mesh.018",
			"primitives":[
				{
					"attributes":{
						"POSITION":40,
						"NORMAL":41
					},
					"indices":42,
					"material":0
				}
			]
		},
		{
			"name":"Building_067_Mesh.019",
			"primitives":[
				{
					"attributes":{
						"POSITION":43,
						"NORMAL":44
					},
					"indices":45,
					"material":1
				}
			]
		},
		{
			"name":"Building_067_Mesh.020",
			"primitives":[
				{
					"attributes":{
						"POSITION":46,
						"NORMAL":47
					},
					"indices":8,
					"material":2
				}
			]
		},
		{
			"name":"Building_082_Mesh.014",
			"primitives":[
				{
					"attributes":{
						"POSITION":48,
						"NORMAL":49
					},
					"indices":50,
					"material":0
				}
			]
		},
		{
			"name":"Building_082_Mesh.015",
			"primitives":[
				{
					"attributes":{
						"POSITION":51,
						"NORMAL":52
					},
					"indices":53,
					"material":1
				}
			]
		},
		{
			"name":"Building_082_Mesh.016",
			"primitives":[
				{
					"attributes":{
						"POSITION":54,
						"NORMAL":55
					},
					"indices":8,
					"material":2
				}
			]
		}
	],
	"accessors":[
		{
			"bufferView":0,
			"componentType":5126,
			"count":495,
			"max":[
				-0.08933818340301514,
				-0.6097825765609741,
				0.04347829148173332
			],
			"min":[
				-0.13825121521949768,
				-0.64673912525177,
				3.3993273973464966e-08
			],
			"type":"VEC3"
		},
		{
			"bufferView":1,
			"componentType":5126,
			"count":495,
			"type":"VEC3"
		},
		{
			"bufferView":2,
			"componentType":5123,
			"count":1422,
			"type":"SCALAR"
		},
		{
			"bufferView":3,
			"componentType":5126,
			"count":28,
			"max":[
				-0.09422945976257324,
				-0.616304337978363,
				0.04130437225103378
			],
			"min":[
				-0.1333599090576172,
				-0.643478274345398,
				0.04130437225103378
			],
			"type":"VEC3"
		},
		{
			"bufferView":4,
			"componentType":5126,
			"count":28,
			"type":"VEC3"
		},
		{
			"bufferView":5,
			"componentType":5123,
			"count":42,
			"type":"SCALAR"
		},
		{
			"bufferView":6,
			"componentType":5126,
			"count":4,
			"max":[
				-0.10509905219078064,
				-0.6326086521148682,
				0.04130437970161438
			],
			"min":[
				-0.12249031662940979,
				-0.64673912525177,
				0.04130437970161438
			],
			"type":"VEC3"
		},
		{
			"bufferView":7,
			"componentType":5126,
			"count":4,
			"type":"VEC3"
		},
		{
			"bufferView":8,
			"componentType":5123,
			"count":6,
			"type":"SCALAR"
		},
		{
			"bufferView":9,
			"componentType":5126,
			"count":501,
			"max":[
				-0.021403402090072632,
				-0.7782608270645142,
				0.06521742045879364
			],
			"min":[
				-0.05401211977005005,
				-0.8423912525177002,
				2.9802322387695312e-08
			],
			"type":"VEC3"
		},
		{
			"bufferView":10,
			"componentType":5126,
			"count":501,
			"type":"VEC3"
		},
		{
			"bufferView":11,
			"componentType":5123,
			"count":1401,
			"type":"SCALAR"
		},
		{
			"bufferView":12,
			"componentType":5126,
			"count":39,
			"max":[
				-0.026838183403015137,
				-0.7956521511077881,
				0.0630435049533844
			],
			"min":[
				-0.048577308654785156,
				-0.8369565010070801,
				0.0630435049533844
			],
			"type":"VEC3"
		},
		{
			"bufferView":13,
			"componentType":5126,
			"count":39,
			"type":"VEC3"
		},
		{
			"bufferView":14,
			"componentType":5123,
			"count":63,
			"type":"SCALAR"
		},
		{
			"bufferView":15,
			"componentType":5126,
			"count":4,
			"max":[
				-0.02683815360069275,
				-0.8282608389854431,
				0.0630435049533844
			],
			"min":[
				-0.03553381562232971,
				-0.8423912525177002,
				0.0630435049533844
			],
			"type":"VEC3"
		},
		{
			"bufferView":16,
			"componentType":5126,
			"count":4,
			"type":"VEC3"
		},
		{
			"bufferView":17,
			"componentType":5126,
			"count":515,
			"max":[
				0.06283572316169739,
				-0.3054347038269043,
				0.05434785410761833
			],
			"min":[
				0.013922721147537231,
				-0.3532608151435852,
				2.9802322387695312e-08
			],
			"type":"VEC3"
		},
		{
			"bufferView":18,
			"componentType":5126,
			"count":515,
			"type":"VEC3"
		},
		{
			"bufferView":19,
			"componentType":5123,
			"count":1434,
			"type":"SCALAR"
		},
		{
			"bufferView":20,
			"componentType":5126,
			"count":28,
			"max":[
				0.057944416999816895,
				-0.322826087474823,
				0.05217394232749939
			],
			"min":[
				0.01881396770477295,
				-0.34999996423721313,
				0.05217394232749939
			],
			"type":"VEC3"
		},
		{
			"bufferView":21,
			"componentType":5126,
			"count":28,
			"type":"VEC3"
		},
		{
			"bufferView":22,
			"componentType":5126,
			"count":4,
			"max":[
				0.047074854373931885,
				-0.3391304016113281,
				0.05217394232749939
			],
			"min":[
				0.029683560132980347,
				-0.3532608151435852,
				0.05217394232749939
			],
			"type":"VEC3"
		},
		{
			"bufferView":23,
			"componentType":5126,
			"count":4,
			"type":"VEC3"
		},
		{
			"bufferView":24,
			"componentType":5126,
			"count":874,
			"max":[
				0.13892275094985962,
				-0.4891304075717926,
				0.05434786155819893
			],
			"min":[
				0.09000968933105469,
				-0.5489130020141602,
				3.3993273973464966e-08
			],
			"type":"VEC3"
		},
		{
			"bufferView":25,
			"componentType":5126,
			"count":874,
			"type":"VEC3"
		},
		{
			"bufferView":26,
			"componentType":5123,
			"count":2829,
			"type":"SCALAR"
		},
		{
			"bufferView":27,
			"componentType":5126,
			"count":63,
			"max":[
				0.13403141498565674,
				-0.502173900604248,
				0.05217394232749939
			],
			"min":[
				0.09490096569061279,
				-0.541304349899292,
				0.05217394232749939
			],
			"type":"VEC3"
		},
		{
			"bufferView":28,
			"componentType":5126,
			"count":63,
			"type":"VEC3"
		},
		{
			"bufferView":29,
			"componentType":5123,
			"count":93,
			"type":"SCALAR"
		},
		{
			"bufferView":30,
			"componentType":5126,
			"count":4,
			"max":[
				0.1340314745903015,
				-0.5347825288772583,
				0.05217394232749939
			],
			"min":[
				0.1275097131729126,
				-0.5489130020141602,
				0.05217394232749939
			],
			"type":"VEC3"
		},
		{
			"bufferView":31,
			"componentType":5126,
			"count":4,
			"type":"VEC3"
		},
		{
			"bufferView":32,
			"componentType":5126,
			"count":826,
			"max":[
				0.13892269134521484,
				-0.6804347634315491,
				0.05434786155819893
			],
			"min":[
				0.09000962972640991,
				-0.7445651888847351,
				3.3993273973464966e-08
			],
			"type":"VEC3"
		},
		{
			"bufferView":33,
			"componentType":5126,
			"count":826,
			"type":"VEC3"
		},
		{
			"bufferView":34,
			"componentType":5123,
			"count":2670,
			"type":"SCALAR"
		},
		{
			"bufferView":35,
			"componentType":5126,
			"count":52,
			"max":[
				0.13403141498565674,
				-0.697826087474823,
				0.05217394232749939
			],
			"min":[
				0.09490096569061279,
				-0.741304337978363,
				0.05217394232749939
			],
			"type":"VEC3"
		},
		{
			"bufferView":36,
			"componentType":5126,
			"count":52,
			"type":"VEC3"
		},
		{
			"bufferView":37,
			"componentType":5123,
			"count":78,
			"type":"SCALAR"
		},
		{
			"bufferView":38,
			"componentType":5126,
			"count":4,
			"max":[
				0.10142272710800171,
				-0.730434775352478,
				0.05217394232749939
			],
			"min":[
				0.09490096569061279,
				-0.7445651888847351,
				0.05217394232749939
			],
			"type":"VEC3"
		},
		{
			"bufferView":39,
			"componentType":5126,
			"count":4,
			"type":"VEC3"
		},
		{
			"bufferView":40,
			"componentType":5126,
			"count":705,
			"max":[
				0.2829444408416748,
				-0.664130449295044,
				0.06521741300821304
			],
			"min":[
				0.250335693359375,
				-0.7445651888847351,
				2.9802322387695312e-08
			],
			"type":"VEC3"
		},
		{
			"bufferView":41,
			"componentType":5126,
			"count":705,
			"type":"VEC3"
		},
		{
			"bufferView":42,
			"componentType":5123,
			"count":2286,
			"type":"SCALAR"
		},
		{
			"bufferView":43,
			"componentType":5126,
			"count":48,
			"max":[
				0.27750957012176514,
				-0.6815217137336731,
				0.0630435049533844
			],
			"min":[
				0.2557704448699951,
				-0.739130437374115,
				0.0630435049533844
			],
			"type":"VEC3"
		},
		{
			"bufferView":44,
			"componentType":5126,
			"count":48,
			"type":"VEC3"
		},
		{
			"bufferView":45,
			"componentType":5123,
			"count":72,
			"type":"SCALAR"
		},
		{
			"bufferView":46,
			"componentType":5126,
			"count":4,
			"max":[
				0.2644661068916321,
				-0.730434775352478,
				0.0630435049533844
			],
			"min":[
				0.2557704448699951,
				-0.7445651888847351,
				0.0630435049533844
			],
			"type":"VEC3"
		},
		{
			"bufferView":47,
			"componentType":5126,
			"count":4,
			"type":"VEC3"
		},
		{
			"bufferView":48,
			"componentType":5126,
			"count":308,
			"max":[
				0.43478238582611084,
				-0.7967391014099121,
				0.06521742045879364
			],
			"min":[
				0.4021736979484558,
				-0.8423912525177002,
				2.9802322387695312e-08
			],
			"type":"VEC3"
		},
		{
			"bufferView":49,
			"componentType":5126,
			"count":308,
			"type":"VEC3"
		},
		{
			"bufferView":50,
			"componentType":5123,
			"count":750,
			"type":"SCALAR"
		},
		{
			"bufferView":51,
			"componentType":5126,
			"count":16,
			"max":[
				0.4293476939201355,
				-0.811956524848938,
				0.0630435049533844
			],
			"min":[
				0.4076085090637207,
				-0.834782600402832,
				0.0630435049533844
			],
			"type":"VEC3"
		},
		{
			"bufferView":52,
			"componentType":5126,
			"count":16,
			"type":"VEC3"
		},
		{
			"bufferView":53,
			"componentType":5123,
			"count":24,
			"type":"SCALAR"
		},
		{
			"bufferView":54,
			"componentType":5126,
			"count":4,
			"max":[
				0.4293476343154907,
				-0.8282608389854431,
				0.0630435049533844
			],
			"min":[
				0.420651912689209,
				-0.8423912525177002,
				0.0630435049533844
			],
			"type":"VEC3"
		},
		{
			"bufferView":55,
			"componentType":5126,
			"count":4,
			"type":"VEC3"
		}
	],
	"bufferViews":[
		{
			"buffer":0,
			"byteLength":5940,
			"byteOffset":0,
			"target":34962
		},
		{
			"buffer":0,
			"byteLength":5940,
			"byteOffset":5940,
			"target":34962
		},
		{
			"buffer":0,
			"byteLength":2844,
			"byteOffset":11880,
			"target":34963
		},
		{
			"buffer":0,
			"byteLength":336,
			"byteOffset":14724,
			"target":34962
		},
		{
			"buffer":0,
			"byteLength":336,
			"byteOffset":15060,
			"target":34962
		},
		{
			"buffer":0,
			"byteLength":84,
			"byteOffset":15396,
			"target":34963
		},
		{
			"buffer":0,
			"byteLength":48,
			"byteOffset":15480,
			"target":34962
		},
		{
			"buffer":0,
			"byteLength":48,
			"byteOffset":15528,
			"target":34962
		},
		{
			"buffer":0,
			"byteLength":12,
			"byteOffset":15576,
			"target":34963
		},
		{
			"buffer":0,
			"byteLength":6012,
			"byteOffset":15588,
			"target":34962
		},
		{
			"buffer":0,
			"byteLength":6012,
			"byteOffset":21600,
			"target":34962
		},
		{
			"buffer":0,
			"byteLength":2802,
			"byteOffset":27612,
			"target":34963
		},
		{
			"buffer":0,
			"byteLength":468,
			"byteOffset":30416,
			"target":34962
		},
		{
			"buffer":0,
			"byteLength":468,
			"byteOffset":30884,
			"target":34962
		},
		{
			"buffer":0,
			"byteLength":126,
			"byteOffset":31352,
			"target":34963
		},
		{
			"buffer":0,
			"byteLength":48,
			"byteOffset":31480,
			"target":34962
		},
		{
			"buffer":0,
			"byteLength":48,
			"byteOffset":31528,
			"target":34962
		},
		{
			"buffer":0,
			"byteLength":6180,
			"byteOffset":31576,
			"target":34962
		},
		{
			"buffer":0,
			"byteLength":6180,
			"byteOffset":37756,
			"target":34962
		},
		{
			"buffer":0,
			"byteLength":2868,
			"byteOffset":43936,
			"target":34963
		},
		{
			"buffer":0,
			"byteLength":336,
			"byteOffset":46804,
			"target":34962
		},
		{
			"buffer":0,
			"byteLength":336,
			"byteOffset":47140,
			"target":34962
		},
		{
			"buffer":0,
			"byteLength":48,
			"byteOffset":47476,
			"target":34962
		},
		{
			"buffer":0,
			"byteLength":48,
			"byteOffset":47524,
			"target":34962
		},
		{
			"buffer":0,
			"byteLength":10488,
			"byteOffset":47572,
			"target":34962
		},
		{
			"buffer":0,
			"byteLength":10488,
			"byteOffset":58060,
			"target":34962
		},
		{
			"buffer":0,
			"byteLength":5658,
			"byteOffset":68548,
			"target":34963
		},
		{
			"buffer":0,
			"byteLength":756,
			"byteOffset":74208,
			"target":34962
		},
		{
			"buffer":0,
			"byteLength":756,
			"byteOffset":74964,
			"target":34962
		},
		{
			"buffer":0,
			"byteLength":186,
			"byteOffset":75720,
			"target":34963
		},
		{
			"buffer":0,
			"byteLength":48,
			"byteOffset":75908,
			"target":34962
		},
		{
			"buffer":0,
			"byteLength":48,
			"byteOffset":75956,
			"target":34962
		},
		{
			"buffer":0,
			"byteLength":9912,
			"byteOffset":76004,
			"target":34962
		},
		{
			"buffer":0,
			"byteLength":9912,
			"byteOffset":85916,
			"target":34962
		},
		{
			"buffer":0,
			"byteLength":5340,
			"byteOffset":95828,
			"target":34963
		},
		{
			"buffer":0,
			"byteLength":624,
			"byteOffset":101168,
			"target":34962
		},
		{
			"buffer":0,
			"byteLength":624,
			"byteOffset":101792,
			"target":34962
		},
		{
			"buffer":0,
			"byteLength":156,
			"byteOffset":102416,
			"target":34963
		},
		{
			"buffer":0,
			"byteLength":48,
			"byteOffset":102572,
			"target":34962
		},
		{
			"buffer":0,
			"byteLength":48,
			"byteOffset":102620,
			"target":34962
		},
		{
			"buffer":0,
			"byteLength":8460,
			"byteOffset":102668,
			"target":34962
		},
		{
			"buffer":0,
			"byteLength":8460,
			"byteOffset":111128,
			"target":34962
		},
		{
			"buffer":0,
			"byteLength":4572,
			"byteOffset":119588,
			"target":34963
		},
		{
			"buffer":0,
			"byteLength":576,
			"byteOffset":124160,
			"target":34962
		},
		{
			"buffer":0,
			"byteLength":576,
			"byteOffset":124736,
			"target":34962
		},
		{
			"buffer":0,
			"byteLength":144,
			"byteOffset":125312,
			"target":34963
		},
		{
			"buffer":0,
			"byteLength":48,
			"byteOffset":125456,
			"target":34962
		},
		{
			"buffer":0,
			"byteLength":48,
			"byteOffset":125504,
			"target":34962
		},
		{
			"buffer":0,
			"byteLength":3696,
			"byteOffset":125552,
			"target":34962
		},
		{
			"buffer":0,
			"byteLength":3696,
			"byteOffset":129248,
			"target":34962
		},
		{
			"buffer":0,
			"byteLength":1500,
			"byteOffset":132944,
			"target":34963
		},
		{
			"buffer":0,
			"byteLength":192,
			"byteOffset":134444,
			"target":34962
		},
		{
			"buffer":0,
			"byteLength":192,
			"byteOffset":134636,
			"target":34962
		},
		{
			"buffer":0,
			"byteLength":48,
			"byteOffset":134828,
			"target":34963
		},
		{
			"buffer":0,
			"byteLength":48,
			"byteOffset":134876,
			"target":34962
		},
		{
			"buffer":0,
			"byteLength":48,
			"byteOffset":134924,
			"target":34962
		}
	],
	"buffers":[
		{
			"byteLength":134972,
			"uri":"BinaGrup3.bin"
		}
	]
}
