{
	"asset":{
		"generator":"Khronos glTF Blender I/O v4.2.60",
		"version":"2.0"
	},
	"scene":0,
	"scenes":[
		{
			"name":"Scene",
			"nodes":[
				0,
				1,
				2,
				3,
				4,
				5,
				6,
				7,
				8,
				9,
				10,
				11,
				12,
				13,
				14,
				15,
				16,
				17,
				18,
				19,
				20
			]
		}
	],
	"nodes":[
		{
			"mesh":0,
			"name":"Building_024.016"
		},
		{
			"mesh":1,
			"name":"Building_024.017"
		},
		{
			"mesh":2,
			"name":"Building_024.018"
		},
		{
			"mesh":3,
			"name":"Building_026.016"
		},
		{
			"mesh":4,
			"name":"Building_026.017"
		},
		{
			"mesh":5,
			"name":"Building_026.018"
		},
		{
			"mesh":6,
			"name":"Building_033.016"
		},
		{
			"mesh":7,
			"name":"Building_033.017"
		},
		{
			"mesh":8,
			"name":"Building_033.018"
		},
		{
			"mesh":9,
			"name":"Building_034.016"
		},
		{
			"mesh":10,
			"name":"Building_034.017"
		},
		{
			"mesh":11,
			"name":"Building_034.018"
		},
		{
			"mesh":12,
			"name":"Building_057.016"
		},
		{
			"mesh":13,
			"name":"Building_057.017"
		},
		{
			"mesh":14,
			"name":"Building_057.018"
		},
		{
			"mesh":15,
			"name":"Building_059.016"
		},
		{
			"mesh":16,
			"name":"Building_059.017"
		},
		{
			"mesh":17,
			"name":"Building_059.018"
		},
		{
			"mesh":18,
			"name":"Building_071.014"
		},
		{
			"mesh":19,
			"name":"Building_071.015"
		},
		{
			"mesh":20,
			"name":"Building_071.016"
		}
	],
	"materials":[
		{
			"doubleSided":true,
			"name":"BinaGrid",
			"pbrMetallicRoughness":{
				"baseColorFactor":[
					0.2874388098716736,
					0.3371638357639313,
					0.4178852438926697,
					1
				],
				"metallicFactor":0,
				"roughnessFactor":0.5
			}
		},
		{
			"doubleSided":true,
			"name":"PencereGrid",
			"pbrMetallicRoughness":{
				"baseColorFactor":[
					0.1499587893486023,
					0.17464761435985565,
					0.2122308313846588,
					1
				],
				"metallicFactor":0,
				"roughnessFactor":0.699999988079071
			}
		},
		{
			"doubleSided":true,
			"name":"Kap\u0131Grid",
			"pbrMetallicRoughness":{
				"baseColorFactor":[
					0.2874388098716736,
					0.3371638357639313,
					0.4178852438926697,
					1
				],
				"metallicFactor":0,
				"roughnessFactor":0.699999988079071
			}
		}
	],
	"meshes":[
		{
			"name":"Building_024_Mesh.018",
			"primitives":[
				{
					"attributes":{
						"POSITION":0,
						"NORMAL":1
					},
					"indices":2,
					"material":0
				}
			]
		},
		{
			"name":"Building_024_Mesh.019",
			"primitives":[
				{
					"attributes":{
						"POSITION":3,
						"NORMAL":4
					},
					"indices":5,
					"material":1
				}
			]
		},
		{
			"name":"Building_024_Mesh.020",
			"primitives":[
				{
					"attributes":{
						"POSITION":6,
						"NORMAL":7
					},
					"indices":8,
					"material":2
				}
			]
		},
		{
			"name":"Building_026_Mesh.018",
			"primitives":[
				{
					"attributes":{
						"POSITION":9,
						"NORMAL":10
					},
					"indices":11,
					"material":0
				}
			]
		},
		{
			"name":"Building_026_Mesh.019",
			"primitives":[
				{
					"attributes":{
						"POSITION":12,
						"NORMAL":13
					},
					"indices":14,
					"material":1
				}
			]
		},
		{
			"name":"Building_026_Mesh.020",
			"primitives":[
				{
					"attributes":{
						"POSITION":15,
						"NORMAL":16
					},
					"indices":8,
					"material":2
				}
			]
		},
		{
			"name":"Building_033_Mesh.018",
			"primitives":[
				{
					"attributes":{
						"POSITION":17,
						"NORMAL":18
					},
					"indices":19,
					"material":0
				}
			]
		},
		{
			"name":"Building_033_Mesh.019",
			"primitives":[
				{
					"attributes":{
						"POSITION":20,
						"NORMAL":21
					},
					"indices":22,
					"material":1
				}
			]
		},
		{
			"name":"Building_033_Mesh.020",
			"primitives":[
				{
					"attributes":{
						"POSITION":23,
						"NORMAL":24
					},
					"indices":8,
					"material":2
				}
			]
		},
		{
			"name":"Building_034_Mesh.019",
			"primitives":[
				{
					"attributes":{
						"POSITION":25,
						"NORMAL":26
					},
					"indices":27,
					"material":0
				}
			]
		},
		{
			"name":"Building_034_Mesh.020",
			"primitives":[
				{
					"attributes":{
						"POSITION":28,
						"NORMAL":29
					},
					"indices":30,
					"material":1
				}
			]
		},
		{
			"name":"Building_034_Mesh.021",
			"primitives":[
				{
					"attributes":{
						"POSITION":31,
						"NORMAL":32
					},
					"indices":8,
					"material":2
				}
			]
		},
		{
			"name":"Building_057_Mesh.018",
			"primitives":[
				{
					"attributes":{
						"POSITION":33,
						"NORMAL":34
					},
					"indices":35,
					"material":0
				}
			]
		},
		{
			"name":"Building_057_Mesh.019",
			"primitives":[
				{
					"attributes":{
						"POSITION":36,
						"NORMAL":37
					},
					"indices":38,
					"material":1
				}
			]
		},
		{
			"name":"Building_057_Mesh.020",
			"primitives":[
				{
					"attributes":{
						"POSITION":39,
						"NORMAL":40
					},
					"indices":8,
					"material":2
				}
			]
		},
		{
			"name":"Building_059_Mesh.018",
			"primitives":[
				{
					"attributes":{
						"POSITION":41,
						"NORMAL":42
					},
					"indices":43,
					"material":0
				}
			]
		},
		{
			"name":"Building_059_Mesh.019",
			"primitives":[
				{
					"attributes":{
						"POSITION":44,
						"NORMAL":45
					},
					"indices":46,
					"material":1
				}
			]
		},
		{
			"name":"Building_059_Mesh.020",
			"primitives":[
				{
					"attributes":{
						"POSITION":47,
						"NORMAL":48
					},
					"indices":8,
					"material":2
				}
			]
		},
		{
			"name":"Building_071_Mesh.014",
			"primitives":[
				{
					"attributes":{
						"POSITION":49,
						"NORMAL":50
					},
					"indices":51,
					"material":0
				}
			]
		},
		{
			"name":"Building_071_Mesh.015",
			"primitives":[
				{
					"attributes":{
						"POSITION":52,
						"NORMAL":53
					},
					"indices":54,
					"material":1
				}
			]
		},
		{
			"name":"Building_071_Mesh.016",
			"primitives":[
				{
					"attributes":{
						"POSITION":55,
						"NORMAL":56
					},
					"indices":8,
					"material":2
				}
			]
		}
	],
	"accessors":[
		{
			"bufferView":0,
			"componentType":5126,
			"count":831,
			"max":[
				-0.1654251217842102,
				-0.5934782028198242,
				0.043478287756443024
			],
			"min":[
				-0.21433816850185394,
				-0.64673912525177,
				2.9802322387695312e-08
			],
			"type":"VEC3"
		},
		{
			"bufferView":1,
			"componentType":5126,
			"count":831,
			"type":"VEC3"
		},
		{
			"bufferView":2,
			"componentType":5123,
			"count":2724,
			"type":"SCALAR"
		},
		{
			"bufferView":3,
			"componentType":5126,
			"count":56,
			"max":[
				-0.1703164279460907,
				-0.5999999642372131,
				0.04130437970161438
			],
			"min":[
				-0.20944686233997345,
				-0.6413042545318604,
				0.04130437970161438
			],
			"type":"VEC3"
		},
		{
			"bufferView":4,
			"componentType":5126,
			"count":56,
			"type":"VEC3"
		},
		{
			"bufferView":5,
			"componentType":5123,
			"count":84,
			"type":"SCALAR"
		},
		{
			"bufferView":6,
			"componentType":5126,
			"count":4,
			"max":[
				-0.18118597567081451,
				-0.6326086521148682,
				0.04130437970161438
			],
			"min":[
				-0.19857728481292725,
				-0.64673912525177,
				0.04130437970161438
			],
			"type":"VEC3"
		},
		{
			"bufferView":7,
			"componentType":5126,
			"count":4,
			"type":"VEC3"
		},
		{
			"bufferView":8,
			"componentType":5123,
			"count":6,
			"type":"SCALAR"
		},
		{
			"bufferView":9,
			"componentType":5126,
			"count":308,
			"max":[
				-0.17357729375362396,
				-0.7967391014099121,
				0.05434785038232803
			],
			"min":[
				-0.206185981631279,
				-0.8423912525177002,
				2.561137080192566e-08
			],
			"type":"VEC3"
		},
		{
			"bufferView":10,
			"componentType":5126,
			"count":308,
			"type":"VEC3"
		},
		{
			"bufferView":11,
			"componentType":5123,
			"count":750,
			"type":"SCALAR"
		},
		{
			"bufferView":12,
			"componentType":5126,
			"count":20,
			"max":[
				-0.17901207506656647,
				-0.811956524848938,
				0.05217394232749939
			],
			"min":[
				-0.2007512003183365,
				-0.8369565010070801,
				0.05217394232749939
			],
			"type":"VEC3"
		},
		{
			"bufferView":13,
			"componentType":5126,
			"count":20,
			"type":"VEC3"
		},
		{
			"bufferView":14,
			"componentType":5123,
			"count":30,
			"type":"SCALAR"
		},
		{
			"bufferView":15,
			"componentType":5126,
			"count":4,
			"max":[
				-0.19205555319786072,
				-0.8282608389854431,
				0.05217394232749939
			],
			"min":[
				-0.2007511854171753,
				-0.8423912525177002,
				0.05217394232749939
			],
			"type":"VEC3"
		},
		{
			"bufferView":16,
			"componentType":5126,
			"count":4,
			"type":"VEC3"
		},
		{
			"bufferView":17,
			"componentType":5126,
			"count":481,
			"max":[
				-0.09749031066894531,
				-0.789130449295044,
				0.043478287756443024
			],
			"min":[
				-0.13009902834892273,
				-0.8423912525177002,
				2.9802322387695312e-08
			],
			"type":"VEC3"
		},
		{
			"bufferView":18,
			"componentType":5126,
			"count":481,
			"type":"VEC3"
		},
		{
			"bufferView":19,
			"componentType":5123,
			"count":1392,
			"type":"SCALAR"
		},
		{
			"bufferView":20,
			"componentType":5126,
			"count":38,
			"max":[
				-0.1029251217842102,
				-0.7956521511077881,
				0.04130437225103378
			],
			"min":[
				-0.12466424703598022,
				-0.834782600402832,
				0.04130437225103378
			],
			"type":"VEC3"
		},
		{
			"bufferView":21,
			"componentType":5126,
			"count":38,
			"type":"VEC3"
		},
		{
			"bufferView":22,
			"componentType":5123,
			"count":60,
			"type":"SCALAR"
		},
		{
			"bufferView":23,
			"componentType":5126,
			"count":4,
			"max":[
				-0.10292509198188782,
				-0.8282608389854431,
				0.04130437970161438
			],
			"min":[
				-0.11162078380584717,
				-0.8423912525177002,
				0.04130437970161438
			],
			"type":"VEC3"
		},
		{
			"bufferView":24,
			"componentType":5126,
			"count":4,
			"type":"VEC3"
		},
		{
			"bufferView":25,
			"componentType":5126,
			"count":722,
			"max":[
				-0.09749031066894531,
				-0.8619564771652222,
				0.05434785410761833
			],
			"min":[
				-0.13009902834892273,
				-0.9402173757553101,
				2.9802322387695312e-08
			],
			"type":"VEC3"
		},
		{
			"bufferView":26,
			"componentType":5126,
			"count":722,
			"type":"VEC3"
		},
		{
			"bufferView":27,
			"componentType":5123,
			"count":2286,
			"type":"SCALAR"
		},
		{
			"bufferView":28,
			"componentType":5126,
			"count":48,
			"max":[
				-0.1029251217842102,
				-0.877173900604248,
				0.05217394232749939
			],
			"min":[
				-0.12466427683830261,
				-0.936956524848938,
				0.05217394232749939
			],
			"type":"VEC3"
		},
		{
			"bufferView":29,
			"componentType":5126,
			"count":48,
			"type":"VEC3"
		},
		{
			"bufferView":30,
			"componentType":5123,
			"count":72,
			"type":"SCALAR"
		},
		{
			"bufferView":31,
			"componentType":5126,
			"count":4,
			"max":[
				-0.11596861481666565,
				-0.9260869026184082,
				0.05217394232749939
			],
			"min":[
				-0.12466427683830261,
				-0.9402173757553101,
				0.05217394232749939
			],
			"type":"VEC3"
		},
		{
			"bufferView":32,
			"componentType":5126,
			"count":4,
			"type":"VEC3"
		},
		{
			"bufferView":33,
			"componentType":5126,
			"count":477,
			"max":[
				0.20685744285583496,
				-0.39782607555389404,
				0.06521742045879364
			],
			"min":[
				0.1742488145828247,
				-0.45108696818351746,
				2.9802322387695312e-08
			],
			"type":"VEC3"
		},
		{
			"bufferView":34,
			"componentType":5126,
			"count":477,
			"type":"VEC3"
		},
		{
			"bufferView":35,
			"componentType":5123,
			"count":1386,
			"type":"SCALAR"
		},
		{
			"bufferView":36,
			"componentType":5126,
			"count":36,
			"max":[
				0.20142275094985962,
				-0.40434783697128296,
				0.0630435049533844
			],
			"min":[
				0.17968356609344482,
				-0.44565218687057495,
				0.0630435049533844
			],
			"type":"VEC3"
		},
		{
			"bufferView":37,
			"componentType":5126,
			"count":36,
			"type":"VEC3"
		},
		{
			"bufferView":38,
			"componentType":5123,
			"count":54,
			"type":"SCALAR"
		},
		{
			"bufferView":39,
			"componentType":5126,
			"count":4,
			"max":[
				0.1883792281150818,
				-0.436956524848938,
				0.0630435049533844
			],
			"min":[
				0.17968356609344482,
				-0.45108696818351746,
				0.0630435049533844
			],
			"type":"VEC3"
		},
		{
			"bufferView":40,
			"componentType":5126,
			"count":4,
			"type":"VEC3"
		},
		{
			"bufferView":41,
			"componentType":5126,
			"count":873,
			"max":[
				0.2150096297264099,
				-0.584782600402832,
				0.05434786155819893
			],
			"min":[
				0.16609662771224976,
				-0.64673912525177,
				3.3993273973464966e-08
			],
			"type":"VEC3"
		},
		{
			"bufferView":42,
			"componentType":5126,
			"count":873,
			"type":"VEC3"
		},
		{
			"bufferView":43,
			"componentType":5123,
			"count":2826,
			"type":"SCALAR"
		},
		{
			"bufferView":44,
			"componentType":5126,
			"count":64,
			"max":[
				0.2101183533668518,
				-0.5999999642372131,
				0.05217394232749939
			],
			"min":[
				0.17098790407180786,
				-0.6413043737411499,
				0.05217394232749939
			],
			"type":"VEC3"
		},
		{
			"bufferView":45,
			"componentType":5126,
			"count":64,
			"type":"VEC3"
		},
		{
			"bufferView":46,
			"componentType":5123,
			"count":96,
			"type":"SCALAR"
		},
		{
			"bufferView":47,
			"componentType":5126,
			"count":4,
			"max":[
				0.21011829376220703,
				-0.6326086521148682,
				0.05217394232749939
			],
			"min":[
				0.20359653234481812,
				-0.64673912525177,
				0.05217394232749939
			],
			"type":"VEC3"
		},
		{
			"bufferView":48,
			"componentType":5126,
			"count":4,
			"type":"VEC3"
		},
		{
			"bufferView":49,
			"componentType":5126,
			"count":1288,
			"max":[
				0.36684757471084595,
				-0.3728260397911072,
				0.05434785038232803
			],
			"min":[
				0.317934513092041,
				-0.45108696818351746,
				2.561137080192566e-08
			],
			"type":"VEC3"
		},
		{
			"bufferView":50,
			"componentType":5126,
			"count":1288,
			"type":"VEC3"
		},
		{
			"bufferView":51,
			"componentType":5123,
			"count":4650,
			"type":"SCALAR"
		},
		{
			"bufferView":52,
			"componentType":5126,
			"count":76,
			"max":[
				0.36195629835128784,
				-0.38804346323013306,
				0.05217394232749939
			],
			"min":[
				0.32282590866088867,
				-0.4434782564640045,
				0.05217394232749939
			],
			"type":"VEC3"
		},
		{
			"bufferView":53,
			"componentType":5126,
			"count":76,
			"type":"VEC3"
		},
		{
			"bufferView":54,
			"componentType":5123,
			"count":114,
			"type":"SCALAR"
		},
		{
			"bufferView":55,
			"componentType":5126,
			"count":4,
			"max":[
				0.36195629835128784,
				-0.436956524848938,
				0.05217394232749939
			],
			"min":[
				0.3554345369338989,
				-0.45108696818351746,
				0.05217394232749939
			],
			"type":"VEC3"
		},
		{
			"bufferView":56,
			"componentType":5126,
			"count":4,
			"type":"VEC3"
		}
	],
	"bufferViews":[
		{
			"buffer":0,
			"byteLength":9972,
			"byteOffset":0,
			"target":34962
		},
		{
			"buffer":0,
			"byteLength":9972,
			"byteOffset":9972,
			"target":34962
		},
		{
			"buffer":0,
			"byteLength":5448,
			"byteOffset":19944,
			"target":34963
		},
		{
			"buffer":0,
			"byteLength":672,
			"byteOffset":25392,
			"target":34962
		},
		{
			"buffer":0,
			"byteLength":672,
			"byteOffset":26064,
			"target":34962
		},
		{
			"buffer":0,
			"byteLength":168,
			"byteOffset":26736,
			"target":34963
		},
		{
			"buffer":0,
			"byteLength":48,
			"byteOffset":26904,
			"target":34962
		},
		{
			"buffer":0,
			"byteLength":48,
			"byteOffset":26952,
			"target":34962
		},
		{
			"buffer":0,
			"byteLength":12,
			"byteOffset":27000,
			"target":34963
		},
		{
			"buffer":0,
			"byteLength":3696,
			"byteOffset":27012,
			"target":34962
		},
		{
			"buffer":0,
			"byteLength":3696,
			"byteOffset":30708,
			"target":34962
		},
		{
			"buffer":0,
			"byteLength":1500,
			"byteOffset":34404,
			"target":34963
		},
		{
			"buffer":0,
			"byteLength":240,
			"byteOffset":35904,
			"target":34962
		},
		{
			"buffer":0,
			"byteLength":240,
			"byteOffset":36144,
			"target":34962
		},
		{
			"buffer":0,
			"byteLength":60,
			"byteOffset":36384,
			"target":34963
		},
		{
			"buffer":0,
			"byteLength":48,
			"byteOffset":36444,
			"target":34962
		},
		{
			"buffer":0,
			"byteLength":48,
			"byteOffset":36492,
			"target":34962
		},
		{
			"buffer":0,
			"byteLength":5772,
			"byteOffset":36540,
			"target":34962
		},
		{
			"buffer":0,
			"byteLength":5772,
			"byteOffset":42312,
			"target":34962
		},
		{
			"buffer":0,
			"byteLength":2784,
			"byteOffset":48084,
			"target":34963
		},
		{
			"buffer":0,
			"byteLength":456,
			"byteOffset":50868,
			"target":34962
		},
		{
			"buffer":0,
			"byteLength":456,
			"byteOffset":51324,
			"target":34962
		},
		{
			"buffer":0,
			"byteLength":120,
			"byteOffset":51780,
			"target":34963
		},
		{
			"buffer":0,
			"byteLength":48,
			"byteOffset":51900,
			"target":34962
		},
		{
			"buffer":0,
			"byteLength":48,
			"byteOffset":51948,
			"target":34962
		},
		{
			"buffer":0,
			"byteLength":8664,
			"byteOffset":51996,
			"target":34962
		},
		{
			"buffer":0,
			"byteLength":8664,
			"byteOffset":60660,
			"target":34962
		},
		{
			"buffer":0,
			"byteLength":4572,
			"byteOffset":69324,
			"target":34963
		},
		{
			"buffer":0,
			"byteLength":576,
			"byteOffset":73896,
			"target":34962
		},
		{
			"buffer":0,
			"byteLength":576,
			"byteOffset":74472,
			"target":34962
		},
		{
			"buffer":0,
			"byteLength":144,
			"byteOffset":75048,
			"target":34963
		},
		{
			"buffer":0,
			"byteLength":48,
			"byteOffset":75192,
			"target":34962
		},
		{
			"buffer":0,
			"byteLength":48,
			"byteOffset":75240,
			"target":34962
		},
		{
			"buffer":0,
			"byteLength":5724,
			"byteOffset":75288,
			"target":34962
		},
		{
			"buffer":0,
			"byteLength":5724,
			"byteOffset":81012,
			"target":34962
		},
		{
			"buffer":0,
			"byteLength":2772,
			"byteOffset":86736,
			"target":34963
		},
		{
			"buffer":0,
			"byteLength":432,
			"byteOffset":89508,
			"target":34962
		},
		{
			"buffer":0,
			"byteLength":432,
			"byteOffset":89940,
			"target":34962
		},
		{
			"buffer":0,
			"byteLength":108,
			"byteOffset":90372,
			"target":34963
		},
		{
			"buffer":0,
			"byteLength":48,
			"byteOffset":90480,
			"target":34962
		},
		{
			"buffer":0,
			"byteLength":48,
			"byteOffset":90528,
			"target":34962
		},
		{
			"buffer":0,
			"byteLength":10476,
			"byteOffset":90576,
			"target":34962
		},
		{
			"buffer":0,
			"byteLength":10476,
			"byteOffset":101052,
			"target":34962
		},
		{
			"buffer":0,
			"byteLength":5652,
			"byteOffset":111528,
			"target":34963
		},
		{
			"buffer":0,
			"byteLength":768,
			"byteOffset":117180,
			"target":34962
		},
		{
			"buffer":0,
			"byteLength":768,
			"byteOffset":117948,
			"target":34962
		},
		{
			"buffer":0,
			"byteLength":192,
			"byteOffset":118716,
			"target":34963
		},
		{
			"buffer":0,
			"byteLength":48,
			"byteOffset":118908,
			"target":34962
		},
		{
			"buffer":0,
			"byteLength":48,
			"byteOffset":118956,
			"target":34962
		},
		{
			"buffer":0,
			"byteLength":15456,
			"byteOffset":119004,
			"target":34962
		},
		{
			"buffer":0,
			"byteLength":15456,
			"byteOffset":134460,
			"target":34962
		},
		{
			"buffer":0,
			"byteLength":9300,
			"byteOffset":149916,
			"target":34963
		},
		{
			"buffer":0,
			"byteLength":912,
			"byteOffset":159216,
			"target":34962
		},
		{
			"buffer":0,
			"byteLength":912,
			"byteOffset":160128,
			"target":34962
		},
		{
			"buffer":0,
			"byteLength":228,
			"byteOffset":161040,
			"target":34963
		},
		{
			"buffer":0,
			"byteLength":48,
			"byteOffset":161268,
			"target":34962
		},
		{
			"buffer":0,
			"byteLength":48,
			"byteOffset":161316,
			"target":34962
		}
	],
	"buffers":[
		{
			"byteLength":161364,
			"uri":"BinaGrup2.bin"
		}
	]
}
