{
	"asset":{
		"generator":"Khronos glTF Blender I/O v4.2.60",
		"version":"2.0"
	},
	"scene":0,
	"scenes":[
		{
			"name":"Scene",
			"nodes":[
				0,
				1,
				2,
				3,
				4,
				5,
				6,
				7,
				8,
				9,
				10,
				11,
				12,
				13,
				14,
				15,
				16,
				17,
				18,
				19,
				20
			]
		}
	],
	"nodes":[
		{
			"mesh":0,
			"name":"Building_018.016"
		},
		{
			"mesh":1,
			"name":"Building_018.017"
		},
		{
			"mesh":2,
			"name":"Building_018.018"
		},
		{
			"mesh":3,
			"name":"Building_032.016"
		},
		{
			"mesh":4,
			"name":"Building_032.017"
		},
		{
			"mesh":5,
			"name":"Building_032.018"
		},
		{
			"mesh":6,
			"name":"Building_037.016"
		},
		{
			"mesh":7,
			"name":"Building_037.017"
		},
		{
			"mesh":8,
			"name":"Building_037.018"
		},
		{
			"mesh":9,
			"name":"Building_038.016"
		},
		{
			"mesh":10,
			"name":"Building_038.017"
		},
		{
			"mesh":11,
			"name":"Building_038.018"
		},
		{
			"mesh":12,
			"name":"Building_047.016"
		},
		{
			"mesh":13,
			"name":"Building_047.017"
		},
		{
			"mesh":14,
			"name":"Building_047.018"
		},
		{
			"mesh":15,
			"name":"Building_055.016"
		},
		{
			"mesh":16,
			"name":"Building_055.017"
		},
		{
			"mesh":17,
			"name":"Building_055.018"
		},
		{
			"mesh":18,
			"name":"Building_069.014"
		},
		{
			"mesh":19,
			"name":"Building_069.015"
		},
		{
			"mesh":20,
			"name":"Building_069.016"
		}
	],
	"materials":[
		{
			"doubleSided":true,
			"name":"BinaGrid",
			"pbrMetallicRoughness":{
				"baseColorFactor":[
					0.2874388098716736,
					0.3371638357639313,
					0.4178852438926697,
					1
				],
				"metallicFactor":0,
				"roughnessFactor":0.5
			}
		},
		{
			"doubleSided":true,
			"name":"Kap\u0131Grid",
			"pbrMetallicRoughness":{
				"baseColorFactor":[
					0.2874388098716736,
					0.3371638357639313,
					0.4178852438926697,
					1
				],
				"metallicFactor":0,
				"roughnessFactor":0.699999988079071
			}
		},
		{
			"doubleSided":true,
			"name":"PencereGrid",
			"pbrMetallicRoughness":{
				"baseColorFactor":[
					0.1499587893486023,
					0.17464761435985565,
					0.2122308313846588,
					1
				],
				"metallicFactor":0,
				"roughnessFactor":0.699999988079071
			}
		}
	],
	"meshes":[
		{
			"name":"Building_018_Mesh.004",
			"primitives":[
				{
					"attributes":{
						"POSITION":0,
						"NORMAL":1
					},
					"indices":2,
					"material":0
				}
			]
		},
		{
			"name":"Building_018_Mesh.005",
			"primitives":[
				{
					"attributes":{
						"POSITION":3,
						"NORMAL":4
					},
					"indices":5,
					"material":1
				}
			]
		},
		{
			"name":"Building_018_Mesh.006",
			"primitives":[
				{
					"attributes":{
						"POSITION":6,
						"NORMAL":7
					},
					"indices":8,
					"material":2
				}
			]
		},
		{
			"name":"Building_032_Mesh.018",
			"primitives":[
				{
					"attributes":{
						"POSITION":9,
						"NORMAL":10
					},
					"indices":11,
					"material":0
				}
			]
		},
		{
			"name":"Building_032_Mesh.019",
			"primitives":[
				{
					"attributes":{
						"POSITION":12,
						"NORMAL":13
					},
					"indices":14,
					"material":2
				}
			]
		},
		{
			"name":"Building_032_Mesh.020",
			"primitives":[
				{
					"attributes":{
						"POSITION":15,
						"NORMAL":16
					},
					"indices":5,
					"material":1
				}
			]
		},
		{
			"name":"Building_037_Mesh.018",
			"primitives":[
				{
					"attributes":{
						"POSITION":17,
						"NORMAL":18
					},
					"indices":19,
					"material":0
				}
			]
		},
		{
			"name":"Building_037_Mesh.019",
			"primitives":[
				{
					"attributes":{
						"POSITION":20,
						"NORMAL":21
					},
					"indices":22,
					"material":2
				}
			]
		},
		{
			"name":"Building_037_Mesh.020",
			"primitives":[
				{
					"attributes":{
						"POSITION":23,
						"NORMAL":24
					},
					"indices":5,
					"material":1
				}
			]
		},
		{
			"name":"Building_038_Mesh.018",
			"primitives":[
				{
					"attributes":{
						"POSITION":25,
						"NORMAL":26
					},
					"indices":27,
					"material":0
				}
			]
		},
		{
			"name":"Building_038_Mesh.019",
			"primitives":[
				{
					"attributes":{
						"POSITION":28,
						"NORMAL":29
					},
					"indices":30,
					"material":2
				}
			]
		},
		{
			"name":"Building_038_Mesh.020",
			"primitives":[
				{
					"attributes":{
						"POSITION":31,
						"NORMAL":32
					},
					"indices":5,
					"material":1
				}
			]
		},
		{
			"name":"Building_047_Mesh.018",
			"primitives":[
				{
					"attributes":{
						"POSITION":33,
						"NORMAL":34
					},
					"indices":35,
					"material":0
				}
			]
		},
		{
			"name":"Building_047_Mesh.019",
			"primitives":[
				{
					"attributes":{
						"POSITION":36,
						"NORMAL":37
					},
					"indices":38,
					"material":2
				}
			]
		},
		{
			"name":"Building_047_Mesh.020",
			"primitives":[
				{
					"attributes":{
						"POSITION":39,
						"NORMAL":40
					},
					"indices":5,
					"material":1
				}
			]
		},
		{
			"name":"Building_055_Mesh.018",
			"primitives":[
				{
					"attributes":{
						"POSITION":41,
						"NORMAL":42
					},
					"indices":43,
					"material":0
				}
			]
		},
		{
			"name":"Building_055_Mesh.019",
			"primitives":[
				{
					"attributes":{
						"POSITION":44,
						"NORMAL":45
					},
					"indices":46,
					"material":2
				}
			]
		},
		{
			"name":"Building_055_Mesh.020",
			"primitives":[
				{
					"attributes":{
						"POSITION":47,
						"NORMAL":48
					},
					"indices":5,
					"material":1
				}
			]
		},
		{
			"name":"Building_069_Mesh.014",
			"primitives":[
				{
					"attributes":{
						"POSITION":49,
						"NORMAL":50
					},
					"indices":51,
					"material":0
				}
			]
		},
		{
			"name":"Building_069_Mesh.015",
			"primitives":[
				{
					"attributes":{
						"POSITION":52,
						"NORMAL":53
					},
					"indices":54,
					"material":2
				}
			]
		},
		{
			"name":"Building_069_Mesh.016",
			"primitives":[
				{
					"attributes":{
						"POSITION":55,
						"NORMAL":56
					},
					"indices":5,
					"material":1
				}
			]
		}
	],
	"accessors":[
		{
			"bufferView":0,
			"componentType":5126,
			"count":505,
			"max":[
				-0.24151206016540527,
				-0.707608699798584,
				0.05434785038232803
			],
			"min":[
				-0.2904250919818878,
				-0.7445651888847351,
				2.561137080192566e-08
			],
			"type":"VEC3"
		},
		{
			"bufferView":1,
			"componentType":5126,
			"count":505,
			"type":"VEC3"
		},
		{
			"bufferView":2,
			"componentType":5123,
			"count":1476,
			"type":"SCALAR"
		},
		{
			"bufferView":3,
			"componentType":5126,
			"count":4,
			"max":[
				-0.24640336632728577,
				-0.730434775352478,
				0.05217394232749939
			],
			"min":[
				-0.2529250979423523,
				-0.7445651888847351,
				0.05217394232749939
			],
			"type":"VEC3"
		},
		{
			"bufferView":4,
			"componentType":5126,
			"count":4,
			"type":"VEC3"
		},
		{
			"bufferView":5,
			"componentType":5123,
			"count":6,
			"type":"SCALAR"
		},
		{
			"bufferView":6,
			"componentType":5126,
			"count":32,
			"max":[
				-0.24640339612960815,
				-0.7141304016113281,
				0.05217394232749939
			],
			"min":[
				-0.2855337858200073,
				-0.741304337978363,
				0.05217394232749939
			],
			"type":"VEC3"
		},
		{
			"bufferView":7,
			"componentType":5126,
			"count":32,
			"type":"VEC3"
		},
		{
			"bufferView":8,
			"componentType":5123,
			"count":48,
			"type":"SCALAR"
		},
		{
			"bufferView":9,
			"componentType":5126,
			"count":496,
			"max":[
				-0.08933818340301514,
				-0.6989129781723022,
				0.04347829148173332
			],
			"min":[
				-0.13825121521949768,
				-0.7445651888847351,
				3.3993273973464966e-08
			],
			"type":"VEC3"
		},
		{
			"bufferView":10,
			"componentType":5126,
			"count":496,
			"type":"VEC3"
		},
		{
			"bufferView":11,
			"componentType":5123,
			"count":1416,
			"type":"SCALAR"
		},
		{
			"bufferView":12,
			"componentType":5126,
			"count":24,
			"max":[
				-0.09422945976257324,
				-0.7141304016113281,
				0.04130437225103378
			],
			"min":[
				-0.1333599090576172,
				-0.741304337978363,
				0.04130437225103378
			],
			"type":"VEC3"
		},
		{
			"bufferView":13,
			"componentType":5126,
			"count":24,
			"type":"VEC3"
		},
		{
			"bufferView":14,
			"componentType":5123,
			"count":36,
			"type":"SCALAR"
		},
		{
			"bufferView":15,
			"componentType":5126,
			"count":4,
			"max":[
				-0.12683820724487305,
				-0.730434775352478,
				0.04130437970161438
			],
			"min":[
				-0.1333599090576172,
				-0.7445651888847351,
				0.04130437970161438
			],
			"type":"VEC3"
		},
		{
			"bufferView":16,
			"componentType":5126,
			"count":4,
			"type":"VEC3"
		},
		{
			"bufferView":17,
			"componentType":5126,
			"count":1258,
			"max":[
				-0.01325121521949768,
				-0.47065216302871704,
				0.05434785038232803
			],
			"min":[
				-0.06216427683830261,
				-0.5489130020141602,
				2.561137080192566e-08
			],
			"type":"VEC3"
		},
		{
			"bufferView":18,
			"componentType":5126,
			"count":1258,
			"type":"VEC3"
		},
		{
			"bufferView":19,
			"componentType":5123,
			"count":4458,
			"type":"SCALAR"
		},
		{
			"bufferView":20,
			"componentType":5126,
			"count":60,
			"max":[
				-0.018142521381378174,
				-0.48586955666542053,
				0.05217394232749939
			],
			"min":[
				-0.05727297067642212,
				-0.541304349899292,
				0.05217394232749939
			],
			"type":"VEC3"
		},
		{
			"bufferView":21,
			"componentType":5126,
			"count":60,
			"type":"VEC3"
		},
		{
			"bufferView":22,
			"componentType":5123,
			"count":90,
			"type":"SCALAR"
		},
		{
			"bufferView":23,
			"componentType":5126,
			"count":4,
			"max":[
				-0.0507512092590332,
				-0.5347825288772583,
				0.05217394232749939
			],
			"min":[
				-0.05727294087409973,
				-0.5489130020141602,
				0.05217394232749939
			],
			"type":"VEC3"
		},
		{
			"bufferView":24,
			"componentType":5126,
			"count":4,
			"type":"VEC3"
		},
		{
			"bufferView":25,
			"componentType":5126,
			"count":292,
			"max":[
				-0.021403402090072632,
				-0.6097825765609741,
				0.043478287756443024
			],
			"min":[
				-0.05401211977005005,
				-0.64673912525177,
				2.9802322387695312e-08
			],
			"type":"VEC3"
		},
		{
			"bufferView":26,
			"componentType":5126,
			"count":292,
			"type":"VEC3"
		},
		{
			"bufferView":27,
			"componentType":5123,
			"count":732,
			"type":"SCALAR"
		},
		{
			"bufferView":28,
			"componentType":5126,
			"count":20,
			"max":[
				-0.026838183403015137,
				-0.616304337978363,
				0.04130437597632408
			],
			"min":[
				-0.048577338457107544,
				-0.643478274345398,
				0.04130437597632408
			],
			"type":"VEC3"
		},
		{
			"bufferView":29,
			"componentType":5126,
			"count":20,
			"type":"VEC3"
		},
		{
			"bufferView":30,
			"componentType":5123,
			"count":30,
			"type":"SCALAR"
		},
		{
			"bufferView":31,
			"componentType":5126,
			"count":4,
			"max":[
				-0.02683815360069275,
				-0.6326086521148682,
				0.04130437970161438
			],
			"min":[
				-0.03553381562232971,
				-0.64673912525177,
				0.04130437970161438
			],
			"type":"VEC3"
		},
		{
			"bufferView":32,
			"componentType":5126,
			"count":4,
			"type":"VEC3"
		},
		{
			"bufferView":33,
			"componentType":5126,
			"count":831,
			"max":[
				0.06283572316169739,
				-0.789130449295044,
				0.05434785410761833
			],
			"min":[
				0.013922661542892456,
				-0.8423912525177002,
				2.9802322387695312e-08
			],
			"type":"VEC3"
		},
		{
			"bufferView":34,
			"componentType":5126,
			"count":831,
			"type":"VEC3"
		},
		{
			"bufferView":35,
			"componentType":5123,
			"count":2718,
			"type":"SCALAR"
		},
		{
			"bufferView":36,
			"componentType":5126,
			"count":60,
			"max":[
				0.057944416999816895,
				-0.7956521511077881,
				0.05217394232749939
			],
			"min":[
				0.01881396770477295,
				-0.8391304016113281,
				0.05217394232749939
			],
			"type":"VEC3"
		},
		{
			"bufferView":37,
			"componentType":5126,
			"count":60,
			"type":"VEC3"
		},
		{
			"bufferView":38,
			"componentType":5123,
			"count":90,
			"type":"SCALAR"
		},
		{
			"bufferView":39,
			"componentType":5126,
			"count":4,
			"max":[
				0.047074854373931885,
				-0.8282608389854431,
				0.05217394232749939
			],
			"min":[
				0.029683560132980347,
				-0.8423912525177002,
				0.05217394232749939
			],
			"type":"VEC3"
		},
		{
			"bufferView":40,
			"componentType":5126,
			"count":4,
			"type":"VEC3"
		},
		{
			"bufferView":41,
			"componentType":5126,
			"count":492,
			"max":[
				0.13892275094985962,
				-0.9032608270645142,
				0.05434785410761833
			],
			"min":[
				0.09000968933105469,
				-0.9402173757553101,
				2.9802322387695312e-08
			],
			"type":"VEC3"
		},
		{
			"bufferView":42,
			"componentType":5126,
			"count":492,
			"type":"VEC3"
		},
		{
			"bufferView":43,
			"componentType":5123,
			"count":1422,
			"type":"SCALAR"
		},
		{
			"bufferView":44,
			"componentType":5126,
			"count":30,
			"max":[
				0.13403141498565674,
				-0.9097825884819031,
				0.05217394232749939
			],
			"min":[
				0.09490096569061279,
				-0.9326087236404419,
				0.05217394232749939
			],
			"type":"VEC3"
		},
		{
			"bufferView":45,
			"componentType":5126,
			"count":30,
			"type":"VEC3"
		},
		{
			"bufferView":46,
			"componentType":5123,
			"count":48,
			"type":"SCALAR"
		},
		{
			"bufferView":47,
			"componentType":5126,
			"count":4,
			"max":[
				0.12316179275512695,
				-0.9260869026184082,
				0.05217394232749939
			],
			"min":[
				0.1057705283164978,
				-0.9402173757553101,
				0.05217394232749939
			],
			"type":"VEC3"
		},
		{
			"bufferView":48,
			"componentType":5126,
			"count":4,
			"type":"VEC3"
		},
		{
			"bufferView":49,
			"componentType":5126,
			"count":497,
			"max":[
				0.2826085090637207,
				-0.876086950302124,
				0.043478287756443024
			],
			"min":[
				0.2499997615814209,
				-0.9402173757553101,
				2.9802322387695312e-08
			],
			"type":"VEC3"
		},
		{
			"bufferView":50,
			"componentType":5126,
			"count":497,
			"type":"VEC3"
		},
		{
			"bufferView":51,
			"componentType":5123,
			"count":1398,
			"type":"SCALAR"
		},
		{
			"bufferView":52,
			"componentType":5126,
			"count":36,
			"max":[
				0.2771737575531006,
				-0.893478274345398,
				0.04130437225103378
			],
			"min":[
				0.2554345726966858,
				-0.936956524848938,
				0.04130437225103378
			],
			"type":"VEC3"
		},
		{
			"bufferView":53,
			"componentType":5126,
			"count":36,
			"type":"VEC3"
		},
		{
			"bufferView":54,
			"componentType":5123,
			"count":54,
			"type":"SCALAR"
		},
		{
			"bufferView":55,
			"componentType":5126,
			"count":4,
			"max":[
				0.26413029432296753,
				-0.9260869026184082,
				0.04130437597632408
			],
			"min":[
				0.2554345726966858,
				-0.9402173757553101,
				0.04130437597632408
			],
			"type":"VEC3"
		},
		{
			"bufferView":56,
			"componentType":5126,
			"count":4,
			"type":"VEC3"
		}
	],
	"bufferViews":[
		{
			"buffer":0,
			"byteLength":6060,
			"byteOffset":0,
			"target":34962
		},
		{
			"buffer":0,
			"byteLength":6060,
			"byteOffset":6060,
			"target":34962
		},
		{
			"buffer":0,
			"byteLength":2952,
			"byteOffset":12120,
			"target":34963
		},
		{
			"buffer":0,
			"byteLength":48,
			"byteOffset":15072,
			"target":34962
		},
		{
			"buffer":0,
			"byteLength":48,
			"byteOffset":15120,
			"target":34962
		},
		{
			"buffer":0,
			"byteLength":12,
			"byteOffset":15168,
			"target":34963
		},
		{
			"buffer":0,
			"byteLength":384,
			"byteOffset":15180,
			"target":34962
		},
		{
			"buffer":0,
			"byteLength":384,
			"byteOffset":15564,
			"target":34962
		},
		{
			"buffer":0,
			"byteLength":96,
			"byteOffset":15948,
			"target":34963
		},
		{
			"buffer":0,
			"byteLength":5952,
			"byteOffset":16044,
			"target":34962
		},
		{
			"buffer":0,
			"byteLength":5952,
			"byteOffset":21996,
			"target":34962
		},
		{
			"buffer":0,
			"byteLength":2832,
			"byteOffset":27948,
			"target":34963
		},
		{
			"buffer":0,
			"byteLength":288,
			"byteOffset":30780,
			"target":34962
		},
		{
			"buffer":0,
			"byteLength":288,
			"byteOffset":31068,
			"target":34962
		},
		{
			"buffer":0,
			"byteLength":72,
			"byteOffset":31356,
			"target":34963
		},
		{
			"buffer":0,
			"byteLength":48,
			"byteOffset":31428,
			"target":34962
		},
		{
			"buffer":0,
			"byteLength":48,
			"byteOffset":31476,
			"target":34962
		},
		{
			"buffer":0,
			"byteLength":15096,
			"byteOffset":31524,
			"target":34962
		},
		{
			"buffer":0,
			"byteLength":15096,
			"byteOffset":46620,
			"target":34962
		},
		{
			"buffer":0,
			"byteLength":8916,
			"byteOffset":61716,
			"target":34963
		},
		{
			"buffer":0,
			"byteLength":720,
			"byteOffset":70632,
			"target":34962
		},
		{
			"buffer":0,
			"byteLength":720,
			"byteOffset":71352,
			"target":34962
		},
		{
			"buffer":0,
			"byteLength":180,
			"byteOffset":72072,
			"target":34963
		},
		{
			"buffer":0,
			"byteLength":48,
			"byteOffset":72252,
			"target":34962
		},
		{
			"buffer":0,
			"byteLength":48,
			"byteOffset":72300,
			"target":34962
		},
		{
			"buffer":0,
			"byteLength":3504,
			"byteOffset":72348,
			"target":34962
		},
		{
			"buffer":0,
			"byteLength":3504,
			"byteOffset":75852,
			"target":34962
		},
		{
			"buffer":0,
			"byteLength":1464,
			"byteOffset":79356,
			"target":34963
		},
		{
			"buffer":0,
			"byteLength":240,
			"byteOffset":80820,
			"target":34962
		},
		{
			"buffer":0,
			"byteLength":240,
			"byteOffset":81060,
			"target":34962
		},
		{
			"buffer":0,
			"byteLength":60,
			"byteOffset":81300,
			"target":34963
		},
		{
			"buffer":0,
			"byteLength":48,
			"byteOffset":81360,
			"target":34962
		},
		{
			"buffer":0,
			"byteLength":48,
			"byteOffset":81408,
			"target":34962
		},
		{
			"buffer":0,
			"byteLength":9972,
			"byteOffset":81456,
			"target":34962
		},
		{
			"buffer":0,
			"byteLength":9972,
			"byteOffset":91428,
			"target":34962
		},
		{
			"buffer":0,
			"byteLength":5436,
			"byteOffset":101400,
			"target":34963
		},
		{
			"buffer":0,
			"byteLength":720,
			"byteOffset":106836,
			"target":34962
		},
		{
			"buffer":0,
			"byteLength":720,
			"byteOffset":107556,
			"target":34962
		},
		{
			"buffer":0,
			"byteLength":180,
			"byteOffset":108276,
			"target":34963
		},
		{
			"buffer":0,
			"byteLength":48,
			"byteOffset":108456,
			"target":34962
		},
		{
			"buffer":0,
			"byteLength":48,
			"byteOffset":108504,
			"target":34962
		},
		{
			"buffer":0,
			"byteLength":5904,
			"byteOffset":108552,
			"target":34962
		},
		{
			"buffer":0,
			"byteLength":5904,
			"byteOffset":114456,
			"target":34962
		},
		{
			"buffer":0,
			"byteLength":2844,
			"byteOffset":120360,
			"target":34963
		},
		{
			"buffer":0,
			"byteLength":360,
			"byteOffset":123204,
			"target":34962
		},
		{
			"buffer":0,
			"byteLength":360,
			"byteOffset":123564,
			"target":34962
		},
		{
			"buffer":0,
			"byteLength":96,
			"byteOffset":123924,
			"target":34963
		},
		{
			"buffer":0,
			"byteLength":48,
			"byteOffset":124020,
			"target":34962
		},
		{
			"buffer":0,
			"byteLength":48,
			"byteOffset":124068,
			"target":34962
		},
		{
			"buffer":0,
			"byteLength":5964,
			"byteOffset":124116,
			"target":34962
		},
		{
			"buffer":0,
			"byteLength":5964,
			"byteOffset":130080,
			"target":34962
		},
		{
			"buffer":0,
			"byteLength":2796,
			"byteOffset":136044,
			"target":34963
		},
		{
			"buffer":0,
			"byteLength":432,
			"byteOffset":138840,
			"target":34962
		},
		{
			"buffer":0,
			"byteLength":432,
			"byteOffset":139272,
			"target":34962
		},
		{
			"buffer":0,
			"byteLength":108,
			"byteOffset":139704,
			"target":34963
		},
		{
			"buffer":0,
			"byteLength":48,
			"byteOffset":139812,
			"target":34962
		},
		{
			"buffer":0,
			"byteLength":48,
			"byteOffset":139860,
			"target":34962
		}
	],
	"buffers":[
		{
			"byteLength":139908,
			"uri":"BinaGrup1.bin"
		}
	]
}
