{
	"asset":{
		"generator":"Khronos glTF Blender I/O v4.2.60",
		"version":"2.0"
	},
	"scene":0,
	"scenes":[
		{
			"name":"Scene",
			"nodes":[
				0,
				1,
				2,
				3,
				4,
				5,
				6,
				7,
				8,
				9,
				10,
				11,
				12,
				13,
				14,
				15,
				16,
				17,
				18,
				19,
				20
			]
		}
	],
	"nodes":[
		{
			"mesh":0,
			"name":"Building_022.016"
		},
		{
			"mesh":1,
			"name":"Building_022.017"
		},
		{
			"mesh":2,
			"name":"Building_022.018"
		},
		{
			"mesh":3,
			"name":"Building_030.016"
		},
		{
			"mesh":4,
			"name":"Building_030.017"
		},
		{
			"mesh":5,
			"name":"Building_030.018"
		},
		{
			"mesh":6,
			"name":"Building_044.016"
		},
		{
			"mesh":7,
			"name":"Building_044.017"
		},
		{
			"mesh":8,
			"name":"Building_044.018"
		},
		{
			"mesh":9,
			"name":"Building_060.016"
		},
		{
			"mesh":10,
			"name":"Building_060.017"
		},
		{
			"mesh":11,
			"name":"Building_060.018"
		},
		{
			"mesh":12,
			"name":"Building_063.016"
		},
		{
			"mesh":13,
			"name":"Building_063.017"
		},
		{
			"mesh":14,
			"name":"Building_063.018"
		},
		{
			"mesh":15,
			"name":"Building_073.014"
		},
		{
			"mesh":16,
			"name":"Building_073.015"
		},
		{
			"mesh":17,
			"name":"Building_073.016"
		},
		{
			"mesh":18,
			"name":"Building_075.014"
		},
		{
			"mesh":19,
			"name":"Building_075.015"
		},
		{
			"mesh":20,
			"name":"Building_075.016"
		}
	],
	"materials":[
		{
			"doubleSided":true,
			"name":"BinaGrid",
			"pbrMetallicRoughness":{
				"baseColorFactor":[
					0.2874388098716736,
					0.3371638357639313,
					0.4178852438926697,
					1
				],
				"metallicFactor":0,
				"roughnessFactor":0.5
			}
		},
		{
			"doubleSided":true,
			"name":"PencereGrid",
			"pbrMetallicRoughness":{
				"baseColorFactor":[
					0.1499587893486023,
					0.17464761435985565,
					0.2122308313846588,
					1
				],
				"metallicFactor":0,
				"roughnessFactor":0.699999988079071
			}
		},
		{
			"doubleSided":true,
			"name":"Kap\u0131Grid",
			"pbrMetallicRoughness":{
				"baseColorFactor":[
					0.2874388098716736,
					0.3371638357639313,
					0.4178852438926697,
					1
				],
				"metallicFactor":0,
				"roughnessFactor":0.699999988079071
			}
		}
	],
	"meshes":[
		{
			"name":"Building_022_Mesh.018",
			"primitives":[
				{
					"attributes":{
						"POSITION":0,
						"NORMAL":1
					},
					"indices":2,
					"material":0
				}
			]
		},
		{
			"name":"Building_022_Mesh.019",
			"primitives":[
				{
					"attributes":{
						"POSITION":3,
						"NORMAL":4
					},
					"indices":5,
					"material":1
				}
			]
		},
		{
			"name":"Building_022_Mesh.020",
			"primitives":[
				{
					"attributes":{
						"POSITION":6,
						"NORMAL":7
					},
					"indices":8,
					"material":2
				}
			]
		},
		{
			"name":"Building_030_Mesh.018",
			"primitives":[
				{
					"attributes":{
						"POSITION":9,
						"NORMAL":10
					},
					"indices":11,
					"material":0
				}
			]
		},
		{
			"name":"Building_030_Mesh.019",
			"primitives":[
				{
					"attributes":{
						"POSITION":12,
						"NORMAL":13
					},
					"indices":14,
					"material":1
				}
			]
		},
		{
			"name":"Building_030_Mesh.020",
			"primitives":[
				{
					"attributes":{
						"POSITION":15,
						"NORMAL":16
					},
					"indices":8,
					"material":2
				}
			]
		},
		{
			"name":"Building_044_Mesh.018",
			"primitives":[
				{
					"attributes":{
						"POSITION":17,
						"NORMAL":18
					},
					"indices":19,
					"material":0
				}
			]
		},
		{
			"name":"Building_044_Mesh.019",
			"primitives":[
				{
					"attributes":{
						"POSITION":20,
						"NORMAL":21
					},
					"indices":22,
					"material":1
				}
			]
		},
		{
			"name":"Building_044_Mesh.020",
			"primitives":[
				{
					"attributes":{
						"POSITION":23,
						"NORMAL":24
					},
					"indices":8,
					"material":2
				}
			]
		},
		{
			"name":"Building_060_Mesh.018",
			"primitives":[
				{
					"attributes":{
						"POSITION":25,
						"NORMAL":26
					},
					"indices":27,
					"material":0
				}
			]
		},
		{
			"name":"Building_060_Mesh.019",
			"primitives":[
				{
					"attributes":{
						"POSITION":28,
						"NORMAL":29
					},
					"indices":30,
					"material":1
				}
			]
		},
		{
			"name":"Building_060_Mesh.020",
			"primitives":[
				{
					"attributes":{
						"POSITION":31,
						"NORMAL":32
					},
					"indices":8,
					"material":2
				}
			]
		},
		{
			"name":"Building_063_Mesh.018",
			"primitives":[
				{
					"attributes":{
						"POSITION":33,
						"NORMAL":34
					},
					"indices":35,
					"material":0
				}
			]
		},
		{
			"name":"Building_063_Mesh.019",
			"primitives":[
				{
					"attributes":{
						"POSITION":36,
						"NORMAL":37
					},
					"indices":38,
					"material":1
				}
			]
		},
		{
			"name":"Building_063_Mesh.020",
			"primitives":[
				{
					"attributes":{
						"POSITION":39,
						"NORMAL":40
					},
					"indices":8,
					"material":2
				}
			]
		},
		{
			"name":"Building_073_Mesh.014",
			"primitives":[
				{
					"attributes":{
						"POSITION":41,
						"NORMAL":42
					},
					"indices":43,
					"material":0
				}
			]
		},
		{
			"name":"Building_073_Mesh.015",
			"primitives":[
				{
					"attributes":{
						"POSITION":44,
						"NORMAL":45
					},
					"indices":46,
					"material":1
				}
			]
		},
		{
			"name":"Building_073_Mesh.016",
			"primitives":[
				{
					"attributes":{
						"POSITION":47,
						"NORMAL":48
					},
					"indices":8,
					"material":2
				}
			]
		},
		{
			"name":"Building_075_Mesh.014",
			"primitives":[
				{
					"attributes":{
						"POSITION":49,
						"NORMAL":50
					},
					"indices":51,
					"material":0
				}
			]
		},
		{
			"name":"Building_075_Mesh.015",
			"primitives":[
				{
					"attributes":{
						"POSITION":52,
						"NORMAL":53
					},
					"indices":54,
					"material":1
				}
			]
		},
		{
			"name":"Building_075_Mesh.016",
			"primitives":[
				{
					"attributes":{
						"POSITION":55,
						"NORMAL":56
					},
					"indices":8,
					"material":2
				}
			]
		}
	],
	"accessors":[
		{
			"bufferView":0,
			"componentType":5126,
			"count":857,
			"max":[
				-0.1654251217842102,
				-0.38913047313690186,
				0.06521741300821304
			],
			"min":[
				-0.21433816850185394,
				-0.45108696818351746,
				2.9802322387695312e-08
			],
			"type":"VEC3"
		},
		{
			"bufferView":1,
			"componentType":5126,
			"count":857,
			"type":"VEC3"
		},
		{
			"bufferView":2,
			"componentType":5123,
			"count":2730,
			"type":"SCALAR"
		},
		{
			"bufferView":3,
			"componentType":5126,
			"count":60,
			"max":[
				-0.1703164130449295,
				-0.40434783697128296,
				0.0630435049533844
			],
			"min":[
				-0.20944684743881226,
				-0.4478261172771454,
				0.0630435049533844
			],
			"type":"VEC3"
		},
		{
			"bufferView":4,
			"componentType":5126,
			"count":60,
			"type":"VEC3"
		},
		{
			"bufferView":5,
			"componentType":5123,
			"count":90,
			"type":"SCALAR"
		},
		{
			"bufferView":6,
			"componentType":5126,
			"count":4,
			"max":[
				-0.18118597567081451,
				-0.436956524848938,
				0.0630435049533844
			],
			"min":[
				-0.19857728481292725,
				-0.45108696818351746,
				0.0630435049533844
			],
			"type":"VEC3"
		},
		{
			"bufferView":7,
			"componentType":5126,
			"count":4,
			"type":"VEC3"
		},
		{
			"bufferView":8,
			"componentType":5123,
			"count":6,
			"type":"SCALAR"
		},
		{
			"bufferView":9,
			"componentType":5126,
			"count":501,
			"max":[
				-0.09749037027359009,
				-0.48695650696754456,
				0.043478287756443024
			],
			"min":[
				-0.13009905815124512,
				-0.5489130020141602,
				2.9802322387695312e-08
			],
			"type":"VEC3"
		},
		{
			"bufferView":10,
			"componentType":5126,
			"count":501,
			"type":"VEC3"
		},
		{
			"bufferView":11,
			"componentType":5123,
			"count":1401,
			"type":"SCALAR"
		},
		{
			"bufferView":12,
			"componentType":5126,
			"count":37,
			"max":[
				-0.1029251217842102,
				-0.502173900604248,
				0.04130437225103378
			],
			"min":[
				-0.12466424703598022,
				-0.54347825050354,
				0.04130437225103378
			],
			"type":"VEC3"
		},
		{
			"bufferView":13,
			"componentType":5126,
			"count":37,
			"type":"VEC3"
		},
		{
			"bufferView":14,
			"componentType":5123,
			"count":63,
			"type":"SCALAR"
		},
		{
			"bufferView":15,
			"componentType":5126,
			"count":4,
			"max":[
				-0.10292509198188782,
				-0.5347825288772583,
				0.04130437970161438
			],
			"min":[
				-0.11162078380584717,
				-0.5489130020141602,
				0.04130437970161438
			],
			"type":"VEC3"
		},
		{
			"bufferView":16,
			"componentType":5126,
			"count":4,
			"type":"VEC3"
		},
		{
			"bufferView":17,
			"componentType":5126,
			"count":515,
			"max":[
				0.06283572316169739,
				-0.5032608509063721,
				0.043478287756443024
			],
			"min":[
				0.013922721147537231,
				-0.5489130020141602,
				2.9802322387695312e-08
			],
			"type":"VEC3"
		},
		{
			"bufferView":18,
			"componentType":5126,
			"count":515,
			"type":"VEC3"
		},
		{
			"bufferView":19,
			"componentType":5123,
			"count":1434,
			"type":"SCALAR"
		},
		{
			"bufferView":20,
			"componentType":5126,
			"count":28,
			"max":[
				0.057944416999816895,
				-0.518478274345398,
				0.04130437225103378
			],
			"min":[
				0.01881396770477295,
				-0.5456521511077881,
				0.04130437225103378
			],
			"type":"VEC3"
		},
		{
			"bufferView":21,
			"componentType":5126,
			"count":28,
			"type":"VEC3"
		},
		{
			"bufferView":22,
			"componentType":5123,
			"count":42,
			"type":"SCALAR"
		},
		{
			"bufferView":23,
			"componentType":5126,
			"count":4,
			"max":[
				0.047074854373931885,
				-0.5347825288772583,
				0.04130437970161438
			],
			"min":[
				0.029683560132980347,
				-0.5489130020141602,
				0.04130437970161438
			],
			"type":"VEC3"
		},
		{
			"bufferView":24,
			"componentType":5126,
			"count":4,
			"type":"VEC3"
		},
		{
			"bufferView":25,
			"componentType":5126,
			"count":800,
			"max":[
				0.2150096297264099,
				-0.6913043260574341,
				0.04347829148173332
			],
			"min":[
				0.16609656810760498,
				-0.7445651888847351,
				3.3993273973464966e-08
			],
			"type":"VEC3"
		},
		{
			"bufferView":26,
			"componentType":5126,
			"count":800,
			"type":"VEC3"
		},
		{
			"bufferView":27,
			"componentType":5123,
			"count":2664,
			"type":"SCALAR"
		},
		{
			"bufferView":28,
			"componentType":5126,
			"count":48,
			"max":[
				0.21011829376220703,
				-0.697826087474823,
				0.04130437970161438
			],
			"min":[
				0.17098784446716309,
				-0.7369564771652222,
				0.04130437970161438
			],
			"type":"VEC3"
		},
		{
			"bufferView":29,
			"componentType":5126,
			"count":48,
			"type":"VEC3"
		},
		{
			"bufferView":30,
			"componentType":5123,
			"count":72,
			"type":"SCALAR"
		},
		{
			"bufferView":31,
			"componentType":5126,
			"count":4,
			"max":[
				0.177509605884552,
				-0.730434775352478,
				0.04130437970161438
			],
			"min":[
				0.17098784446716309,
				-0.7445651888847351,
				0.04130437970161438
			],
			"type":"VEC3"
		},
		{
			"bufferView":32,
			"componentType":5126,
			"count":4,
			"type":"VEC3"
		},
		{
			"bufferView":33,
			"componentType":5126,
			"count":884,
			"max":[
				0.2910965085029602,
				-0.2913042902946472,
				0.043478287756443024
			],
			"min":[
				0.24218344688415527,
				-0.35326075553894043,
				2.9802322387695312e-08
			],
			"type":"VEC3"
		},
		{
			"bufferView":34,
			"componentType":5126,
			"count":884,
			"type":"VEC3"
		},
		{
			"bufferView":35,
			"componentType":5123,
			"count":2829,
			"type":"SCALAR"
		},
		{
			"bufferView":36,
			"componentType":5126,
			"count":63,
			"max":[
				0.2862052917480469,
				-0.3065217137336731,
				0.04130437970161438
			],
			"min":[
				0.24707484245300293,
				-0.34565210342407227,
				0.04130437970161438
			],
			"type":"VEC3"
		},
		{
			"bufferView":37,
			"componentType":5126,
			"count":63,
			"type":"VEC3"
		},
		{
			"bufferView":38,
			"componentType":5123,
			"count":93,
			"type":"SCALAR"
		},
		{
			"bufferView":39,
			"componentType":5126,
			"count":4,
			"max":[
				0.2862052917480469,
				-0.3391304016113281,
				0.04130437970161438
			],
			"min":[
				0.27968353033065796,
				-0.3532608151435852,
				0.04130437970161438
			],
			"type":"VEC3"
		},
		{
			"bufferView":40,
			"componentType":5126,
			"count":4,
			"type":"VEC3"
		},
		{
			"bufferView":41,
			"componentType":5126,
			"count":308,
			"max":[
				0.35869544744491577,
				-0.60326087474823,
				0.05434785410761833
			],
			"min":[
				0.32608675956726074,
				-0.64673912525177,
				2.9802322387695312e-08
			],
			"type":"VEC3"
		},
		{
			"bufferView":42,
			"componentType":5126,
			"count":308,
			"type":"VEC3"
		},
		{
			"bufferView":43,
			"componentType":5123,
			"count":750,
			"type":"SCALAR"
		},
		{
			"bufferView":44,
			"componentType":5126,
			"count":16,
			"max":[
				0.35326069593429565,
				-0.616304337978363,
				0.05217394232749939
			],
			"min":[
				0.33152157068252563,
				-0.6391304135322571,
				0.05217394232749939
			],
			"type":"VEC3"
		},
		{
			"bufferView":45,
			"componentType":5126,
			"count":16,
			"type":"VEC3"
		},
		{
			"bufferView":46,
			"componentType":5123,
			"count":24,
			"type":"SCALAR"
		},
		{
			"bufferView":47,
			"componentType":5126,
			"count":4,
			"max":[
				0.3532606363296509,
				-0.6326086521148682,
				0.05217394232749939
			],
			"min":[
				0.3445649743080139,
				-0.64673912525177,
				0.05217394232749939
			],
			"type":"VEC3"
		},
		{
			"bufferView":48,
			"componentType":5126,
			"count":4,
			"type":"VEC3"
		},
		{
			"bufferView":49,
			"componentType":5126,
			"count":514,
			"max":[
				0.36684757471084595,
				-0.7945652008056641,
				0.05434786155819893
			],
			"min":[
				0.317934513092041,
				-0.8423912525177002,
				2.9802322387695312e-08
			],
			"type":"VEC3"
		},
		{
			"bufferView":50,
			"componentType":5126,
			"count":514,
			"type":"VEC3"
		},
		{
			"bufferView":51,
			"componentType":5123,
			"count":1434,
			"type":"SCALAR"
		},
		{
			"bufferView":52,
			"componentType":5126,
			"count":32,
			"max":[
				0.36195629835128784,
				-0.811956524848938,
				0.05217394232749939
			],
			"min":[
				0.32282590866088867,
				-0.834782600402832,
				0.05217394232749939
			],
			"type":"VEC3"
		},
		{
			"bufferView":53,
			"componentType":5126,
			"count":32,
			"type":"VEC3"
		},
		{
			"bufferView":54,
			"componentType":5123,
			"count":48,
			"type":"SCALAR"
		},
		{
			"bufferView":55,
			"componentType":5126,
			"count":4,
			"max":[
				0.3510867953300476,
				-0.8282608389854431,
				0.05217394232749939
			],
			"min":[
				0.3336954116821289,
				-0.8423912525177002,
				0.05217394232749939
			],
			"type":"VEC3"
		},
		{
			"bufferView":56,
			"componentType":5126,
			"count":4,
			"type":"VEC3"
		}
	],
	"bufferViews":[
		{
			"buffer":0,
			"byteLength":10284,
			"byteOffset":0,
			"target":34962
		},
		{
			"buffer":0,
			"byteLength":10284,
			"byteOffset":10284,
			"target":34962
		},
		{
			"buffer":0,
			"byteLength":5460,
			"byteOffset":20568,
			"target":34963
		},
		{
			"buffer":0,
			"byteLength":720,
			"byteOffset":26028,
			"target":34962
		},
		{
			"buffer":0,
			"byteLength":720,
			"byteOffset":26748,
			"target":34962
		},
		{
			"buffer":0,
			"byteLength":180,
			"byteOffset":27468,
			"target":34963
		},
		{
			"buffer":0,
			"byteLength":48,
			"byteOffset":27648,
			"target":34962
		},
		{
			"buffer":0,
			"byteLength":48,
			"byteOffset":27696,
			"target":34962
		},
		{
			"buffer":0,
			"byteLength":12,
			"byteOffset":27744,
			"target":34963
		},
		{
			"buffer":0,
			"byteLength":6012,
			"byteOffset":27756,
			"target":34962
		},
		{
			"buffer":0,
			"byteLength":6012,
			"byteOffset":33768,
			"target":34962
		},
		{
			"buffer":0,
			"byteLength":2802,
			"byteOffset":39780,
			"target":34963
		},
		{
			"buffer":0,
			"byteLength":444,
			"byteOffset":42584,
			"target":34962
		},
		{
			"buffer":0,
			"byteLength":444,
			"byteOffset":43028,
			"target":34962
		},
		{
			"buffer":0,
			"byteLength":126,
			"byteOffset":43472,
			"target":34963
		},
		{
			"buffer":0,
			"byteLength":48,
			"byteOffset":43600,
			"target":34962
		},
		{
			"buffer":0,
			"byteLength":48,
			"byteOffset":43648,
			"target":34962
		},
		{
			"buffer":0,
			"byteLength":6180,
			"byteOffset":43696,
			"target":34962
		},
		{
			"buffer":0,
			"byteLength":6180,
			"byteOffset":49876,
			"target":34962
		},
		{
			"buffer":0,
			"byteLength":2868,
			"byteOffset":56056,
			"target":34963
		},
		{
			"buffer":0,
			"byteLength":336,
			"byteOffset":58924,
			"target":34962
		},
		{
			"buffer":0,
			"byteLength":336,
			"byteOffset":59260,
			"target":34962
		},
		{
			"buffer":0,
			"byteLength":84,
			"byteOffset":59596,
			"target":34963
		},
		{
			"buffer":0,
			"byteLength":48,
			"byteOffset":59680,
			"target":34962
		},
		{
			"buffer":0,
			"byteLength":48,
			"byteOffset":59728,
			"target":34962
		},
		{
			"buffer":0,
			"byteLength":9600,
			"byteOffset":59776,
			"target":34962
		},
		{
			"buffer":0,
			"byteLength":9600,
			"byteOffset":69376,
			"target":34962
		},
		{
			"buffer":0,
			"byteLength":5328,
			"byteOffset":78976,
			"target":34963
		},
		{
			"buffer":0,
			"byteLength":576,
			"byteOffset":84304,
			"target":34962
		},
		{
			"buffer":0,
			"byteLength":576,
			"byteOffset":84880,
			"target":34962
		},
		{
			"buffer":0,
			"byteLength":144,
			"byteOffset":85456,
			"target":34963
		},
		{
			"buffer":0,
			"byteLength":48,
			"byteOffset":85600,
			"target":34962
		},
		{
			"buffer":0,
			"byteLength":48,
			"byteOffset":85648,
			"target":34962
		},
		{
			"buffer":0,
			"byteLength":10608,
			"byteOffset":85696,
			"target":34962
		},
		{
			"buffer":0,
			"byteLength":10608,
			"byteOffset":96304,
			"target":34962
		},
		{
			"buffer":0,
			"byteLength":5658,
			"byteOffset":106912,
			"target":34963
		},
		{
			"buffer":0,
			"byteLength":756,
			"byteOffset":112572,
			"target":34962
		},
		{
			"buffer":0,
			"byteLength":756,
			"byteOffset":113328,
			"target":34962
		},
		{
			"buffer":0,
			"byteLength":186,
			"byteOffset":114084,
			"target":34963
		},
		{
			"buffer":0,
			"byteLength":48,
			"byteOffset":114272,
			"target":34962
		},
		{
			"buffer":0,
			"byteLength":48,
			"byteOffset":114320,
			"target":34962
		},
		{
			"buffer":0,
			"byteLength":3696,
			"byteOffset":114368,
			"target":34962
		},
		{
			"buffer":0,
			"byteLength":3696,
			"byteOffset":118064,
			"target":34962
		},
		{
			"buffer":0,
			"byteLength":1500,
			"byteOffset":121760,
			"target":34963
		},
		{
			"buffer":0,
			"byteLength":192,
			"byteOffset":123260,
			"target":34962
		},
		{
			"buffer":0,
			"byteLength":192,
			"byteOffset":123452,
			"target":34962
		},
		{
			"buffer":0,
			"byteLength":48,
			"byteOffset":123644,
			"target":34963
		},
		{
			"buffer":0,
			"byteLength":48,
			"byteOffset":123692,
			"target":34962
		},
		{
			"buffer":0,
			"byteLength":48,
			"byteOffset":123740,
			"target":34962
		},
		{
			"buffer":0,
			"byteLength":6168,
			"byteOffset":123788,
			"target":34962
		},
		{
			"buffer":0,
			"byteLength":6168,
			"byteOffset":129956,
			"target":34962
		},
		{
			"buffer":0,
			"byteLength":2868,
			"byteOffset":136124,
			"target":34963
		},
		{
			"buffer":0,
			"byteLength":384,
			"byteOffset":138992,
			"target":34962
		},
		{
			"buffer":0,
			"byteLength":384,
			"byteOffset":139376,
			"target":34962
		},
		{
			"buffer":0,
			"byteLength":96,
			"byteOffset":139760,
			"target":34963
		},
		{
			"buffer":0,
			"byteLength":48,
			"byteOffset":139856,
			"target":34962
		},
		{
			"buffer":0,
			"byteLength":48,
			"byteOffset":139904,
			"target":34962
		}
	],
	"buffers":[
		{
			"byteLength":139952,
			"uri":"BinaGrup4.bin"
		}
	]
}
