{
	"asset":{
		"generator":"Khronos glTF Blender I/O v4.2.60",
		"version":"2.0"
	},
	"scene":0,
	"scenes":[
		{
			"name":"Scene",
			"nodes":[
				0,
				1,
				2,
				3,
				4,
				5,
				6,
				7,
				8,
				9,
				10,
				11,
				12,
				13,
				14,
				15,
				16,
				17,
				18,
				19,
				20
			]
		}
	],
	"nodes":[
		{
			"mesh":0,
			"name":"Building_027.016"
		},
		{
			"mesh":1,
			"name":"Building_027.017"
		},
		{
			"mesh":2,
			"name":"Building_027.018"
		},
		{
			"mesh":3,
			"name":"Building_046.016"
		},
		{
			"mesh":4,
			"name":"Building_046.017"
		},
		{
			"mesh":5,
			"name":"Building_046.018"
		},
		{
			"mesh":6,
			"name":"Building_048.016"
		},
		{
			"mesh":7,
			"name":"Building_048.017"
		},
		{
			"mesh":8,
			"name":"Building_048.018"
		},
		{
			"mesh":9,
			"name":"Building_049.016"
		},
		{
			"mesh":10,
			"name":"Building_049.017"
		},
		{
			"mesh":11,
			"name":"Building_049.018"
		},
		{
			"mesh":12,
			"name":"Building_054.016"
		},
		{
			"mesh":13,
			"name":"Building_054.017"
		},
		{
			"mesh":14,
			"name":"Building_054.018"
		},
		{
			"mesh":15,
			"name":"Building_064.016"
		},
		{
			"mesh":16,
			"name":"Building_064.017"
		},
		{
			"mesh":17,
			"name":"Building_064.018"
		},
		{
			"mesh":18,
			"name":"Building_076.014"
		},
		{
			"mesh":19,
			"name":"Building_076.015"
		},
		{
			"mesh":20,
			"name":"Building_076.016"
		}
	],
	"materials":[
		{
			"doubleSided":true,
			"name":"BinaGrid",
			"pbrMetallicRoughness":{
				"baseColorFactor":[
					0.2874388098716736,
					0.3371638357639313,
					0.4178852438926697,
					1
				],
				"metallicFactor":0,
				"roughnessFactor":0.5
			}
		},
		{
			"doubleSided":true,
			"name":"PencereGrid",
			"pbrMetallicRoughness":{
				"baseColorFactor":[
					0.1499587893486023,
					0.17464761435985565,
					0.2122308313846588,
					1
				],
				"metallicFactor":0,
				"roughnessFactor":0.699999988079071
			}
		},
		{
			"doubleSided":true,
			"name":"Kap\u0131Grid",
			"pbrMetallicRoughness":{
				"baseColorFactor":[
					0.2874388098716736,
					0.3371638357639313,
					0.4178852438926697,
					1
				],
				"metallicFactor":0,
				"roughnessFactor":0.699999988079071
			}
		}
	],
	"meshes":[
		{
			"name":"Building_027_Mesh.018",
			"primitives":[
				{
					"attributes":{
						"POSITION":0,
						"NORMAL":1
					},
					"indices":2,
					"material":0
				}
			]
		},
		{
			"name":"Building_027_Mesh.019",
			"primitives":[
				{
					"attributes":{
						"POSITION":3,
						"NORMAL":4
					},
					"indices":5,
					"material":1
				}
			]
		},
		{
			"name":"Building_027_Mesh.020",
			"primitives":[
				{
					"attributes":{
						"POSITION":6,
						"NORMAL":7
					},
					"indices":8,
					"material":2
				}
			]
		},
		{
			"name":"Building_046_Mesh.018",
			"primitives":[
				{
					"attributes":{
						"POSITION":9,
						"NORMAL":10
					},
					"indices":11,
					"material":0
				}
			]
		},
		{
			"name":"Building_046_Mesh.019",
			"primitives":[
				{
					"attributes":{
						"POSITION":12,
						"NORMAL":13
					},
					"indices":14,
					"material":1
				}
			]
		},
		{
			"name":"Building_046_Mesh.020",
			"primitives":[
				{
					"attributes":{
						"POSITION":15,
						"NORMAL":16
					},
					"indices":8,
					"material":2
				}
			]
		},
		{
			"name":"Building_048_Mesh.018",
			"primitives":[
				{
					"attributes":{
						"POSITION":17,
						"NORMAL":18
					},
					"indices":19,
					"material":0
				}
			]
		},
		{
			"name":"Building_048_Mesh.019",
			"primitives":[
				{
					"attributes":{
						"POSITION":20,
						"NORMAL":21
					},
					"indices":22,
					"material":1
				}
			]
		},
		{
			"name":"Building_048_Mesh.020",
			"primitives":[
				{
					"attributes":{
						"POSITION":23,
						"NORMAL":24
					},
					"indices":8,
					"material":2
				}
			]
		},
		{
			"name":"Building_049_Mesh.018",
			"primitives":[
				{
					"attributes":{
						"POSITION":25,
						"NORMAL":26
					},
					"indices":27,
					"material":0
				}
			]
		},
		{
			"name":"Building_049_Mesh.019",
			"primitives":[
				{
					"attributes":{
						"POSITION":28,
						"NORMAL":29
					},
					"indices":30,
					"material":1
				}
			]
		},
		{
			"name":"Building_049_Mesh.020",
			"primitives":[
				{
					"attributes":{
						"POSITION":31,
						"NORMAL":32
					},
					"indices":8,
					"material":2
				}
			]
		},
		{
			"name":"Building_054_Mesh.018",
			"primitives":[
				{
					"attributes":{
						"POSITION":33,
						"NORMAL":34
					},
					"indices":35,
					"material":0
				}
			]
		},
		{
			"name":"Building_054_Mesh.019",
			"primitives":[
				{
					"attributes":{
						"POSITION":36,
						"NORMAL":37
					},
					"indices":5,
					"material":1
				}
			]
		},
		{
			"name":"Building_054_Mesh.020",
			"primitives":[
				{
					"attributes":{
						"POSITION":38,
						"NORMAL":39
					},
					"indices":8,
					"material":2
				}
			]
		},
		{
			"name":"Building_064_Mesh.018",
			"primitives":[
				{
					"attributes":{
						"POSITION":40,
						"NORMAL":41
					},
					"indices":42,
					"material":0
				}
			]
		},
		{
			"name":"Building_064_Mesh.019",
			"primitives":[
				{
					"attributes":{
						"POSITION":43,
						"NORMAL":44
					},
					"indices":45,
					"material":1
				}
			]
		},
		{
			"name":"Building_064_Mesh.020",
			"primitives":[
				{
					"attributes":{
						"POSITION":46,
						"NORMAL":47
					},
					"indices":8,
					"material":2
				}
			]
		},
		{
			"name":"Building_076_Mesh.014",
			"primitives":[
				{
					"attributes":{
						"POSITION":48,
						"NORMAL":49
					},
					"indices":50,
					"material":0
				}
			]
		},
		{
			"name":"Building_076_Mesh.015",
			"primitives":[
				{
					"attributes":{
						"POSITION":51,
						"NORMAL":52
					},
					"indices":53,
					"material":1
				}
			]
		},
		{
			"name":"Building_076_Mesh.016",
			"primitives":[
				{
					"attributes":{
						"POSITION":54,
						"NORMAL":55
					},
					"indices":8,
					"material":2
				}
			]
		}
	],
	"accessors":[
		{
			"bufferView":0,
			"componentType":5126,
			"count":497,
			"max":[
				-0.17357729375362396,
				-0.876086950302124,
				0.05434785410761833
			],
			"min":[
				-0.206185981631279,
				-0.9402173757553101,
				2.9802322387695312e-08
			],
			"type":"VEC3"
		},
		{
			"bufferView":1,
			"componentType":5126,
			"count":497,
			"type":"VEC3"
		},
		{
			"bufferView":2,
			"componentType":5123,
			"count":1398,
			"type":"SCALAR"
		},
		{
			"bufferView":3,
			"componentType":5126,
			"count":36,
			"max":[
				-0.17901206016540527,
				-0.893478274345398,
				0.05217394232749939
			],
			"min":[
				-0.2007511854171753,
				-0.936956524848938,
				0.05217394232749939
			],
			"type":"VEC3"
		},
		{
			"bufferView":4,
			"componentType":5126,
			"count":36,
			"type":"VEC3"
		},
		{
			"bufferView":5,
			"componentType":5123,
			"count":54,
			"type":"SCALAR"
		},
		{
			"bufferView":6,
			"componentType":5126,
			"count":4,
			"max":[
				-0.19205555319786072,
				-0.9260869026184082,
				0.05217394232749939
			],
			"min":[
				-0.2007511854171753,
				-0.9402173757553101,
				0.05217394232749939
			],
			"type":"VEC3"
		},
		{
			"bufferView":7,
			"componentType":5126,
			"count":4,
			"type":"VEC3"
		},
		{
			"bufferView":8,
			"componentType":5123,
			"count":6,
			"type":"SCALAR"
		},
		{
			"bufferView":9,
			"componentType":5126,
			"count":281,
			"max":[
				0.054683536291122437,
				-0.707608699798584,
				0.05434785410761833
			],
			"min":[
				0.022074848413467407,
				-0.7445651888847351,
				2.9802322387695312e-08
			],
			"type":"VEC3"
		},
		{
			"bufferView":10,
			"componentType":5126,
			"count":281,
			"type":"VEC3"
		},
		{
			"bufferView":11,
			"componentType":5123,
			"count":732,
			"type":"SCALAR"
		},
		{
			"bufferView":12,
			"componentType":5126,
			"count":20,
			"max":[
				0.04924875497817993,
				-0.7141304016113281,
				0.05217394232749939
			],
			"min":[
				0.027509629726409912,
				-0.739130437374115,
				0.05217394232749939
			],
			"type":"VEC3"
		},
		{
			"bufferView":13,
			"componentType":5126,
			"count":20,
			"type":"VEC3"
		},
		{
			"bufferView":14,
			"componentType":5123,
			"count":30,
			"type":"SCALAR"
		},
		{
			"bufferView":15,
			"componentType":5126,
			"count":4,
			"max":[
				0.04924878478050232,
				-0.730434775352478,
				0.05217394232749939
			],
			"min":[
				0.040553122758865356,
				-0.7445651888847351,
				0.05217394232749939
			],
			"type":"VEC3"
		},
		{
			"bufferView":16,
			"componentType":5126,
			"count":4,
			"type":"VEC3"
		},
		{
			"bufferView":17,
			"componentType":5126,
			"count":820,
			"max":[
				0.06283572316169739,
				-0.886956512928009,
				0.05434786155819893
			],
			"min":[
				0.013922721147537231,
				-0.9402173757553101,
				3.3993273973464966e-08
			],
			"type":"VEC3"
		},
		{
			"bufferView":18,
			"componentType":5126,
			"count":820,
			"type":"VEC3"
		},
		{
			"bufferView":19,
			"componentType":5123,
			"count":2664,
			"type":"SCALAR"
		},
		{
			"bufferView":20,
			"componentType":5126,
			"count":48,
			"max":[
				0.05794438719749451,
				-0.893478274345398,
				0.05217394232749939
			],
			"min":[
				0.01881396770477295,
				-0.9347826242446899,
				0.05217394232749939
			],
			"type":"VEC3"
		},
		{
			"bufferView":21,
			"componentType":5126,
			"count":48,
			"type":"VEC3"
		},
		{
			"bufferView":22,
			"componentType":5123,
			"count":72,
			"type":"SCALAR"
		},
		{
			"bufferView":23,
			"componentType":5126,
			"count":4,
			"max":[
				0.025335729122161865,
				-0.9260869026184082,
				0.05217394232749939
			],
			"min":[
				0.018814027309417725,
				-0.9402173757553101,
				0.05217394232749939
			],
			"type":"VEC3"
		},
		{
			"bufferView":24,
			"componentType":5126,
			"count":4,
			"type":"VEC3"
		},
		{
			"bufferView":25,
			"componentType":5126,
			"count":1267,
			"max":[
				0.13892269134521484,
				-0.2749999165534973,
				0.06521741300821304
			],
			"min":[
				0.09000962972640991,
				-0.3532608151435852,
				2.9802322387695312e-08
			],
			"type":"VEC3"
		},
		{
			"bufferView":26,
			"componentType":5126,
			"count":1267,
			"type":"VEC3"
		},
		{
			"bufferView":27,
			"componentType":5123,
			"count":4512,
			"type":"SCALAR"
		},
		{
			"bufferView":28,
			"componentType":5126,
			"count":72,
			"max":[
				0.13403135538101196,
				-0.29021739959716797,
				0.0630435049533844
			],
			"min":[
				0.09490090608596802,
				-0.34565216302871704,
				0.0630435049533844
			],
			"type":"VEC3"
		},
		{
			"bufferView":29,
			"componentType":5126,
			"count":72,
			"type":"VEC3"
		},
		{
			"bufferView":30,
			"componentType":5123,
			"count":108,
			"type":"SCALAR"
		},
		{
			"bufferView":31,
			"componentType":5126,
			"count":4,
			"max":[
				0.12316179275512695,
				-0.3391304016113281,
				0.0630435049533844
			],
			"min":[
				0.1057705283164978,
				-0.3532608151435852,
				0.0630435049533844
			],
			"type":"VEC3"
		},
		{
			"bufferView":32,
			"componentType":5126,
			"count":4,
			"type":"VEC3"
		},
		{
			"bufferView":33,
			"componentType":5126,
			"count":477,
			"max":[
				0.1307705044746399,
				-0.789130449295044,
				0.05434785410761833
			],
			"min":[
				0.09816181659698486,
				-0.8423912525177002,
				2.9802322387695312e-08
			],
			"type":"VEC3"
		},
		{
			"bufferView":34,
			"componentType":5126,
			"count":477,
			"type":"VEC3"
		},
		{
			"bufferView":35,
			"componentType":5123,
			"count":1386,
			"type":"SCALAR"
		},
		{
			"bufferView":36,
			"componentType":5126,
			"count":36,
			"max":[
				0.12533575296401978,
				-0.7956521511077881,
				0.05217394232749939
			],
			"min":[
				0.10359662771224976,
				-0.834782600402832,
				0.05217394232749939
			],
			"type":"VEC3"
		},
		{
			"bufferView":37,
			"componentType":5126,
			"count":36,
			"type":"VEC3"
		},
		{
			"bufferView":38,
			"componentType":5126,
			"count":4,
			"max":[
				0.11229228973388672,
				-0.8282608389854431,
				0.05217394232749939
			],
			"min":[
				0.10359662771224976,
				-0.8423912525177002,
				0.05217394232749939
			],
			"type":"VEC3"
		},
		{
			"bufferView":39,
			"componentType":5126,
			"count":4,
			"type":"VEC3"
		},
		{
			"bufferView":40,
			"componentType":5126,
			"count":1257,
			"max":[
				0.29109662771224976,
				-0.375,
				0.04347829148173332
			],
			"min":[
				0.24218356609344482,
				-0.45108696818351746,
				3.3993273973464966e-08
			],
			"type":"VEC3"
		},
		{
			"bufferView":41,
			"componentType":5126,
			"count":1257,
			"type":"VEC3"
		},
		{
			"bufferView":42,
			"componentType":5123,
			"count":4446,
			"type":"SCALAR"
		},
		{
			"bufferView":43,
			"componentType":5126,
			"count":56,
			"max":[
				0.2862052917480469,
				-0.38804346323013306,
				0.04130437225103378
			],
			"min":[
				0.24707484245300293,
				-0.44565218687057495,
				0.04130437225103378
			],
			"type":"VEC3"
		},
		{
			"bufferView":44,
			"componentType":5126,
			"count":56,
			"type":"VEC3"
		},
		{
			"bufferView":45,
			"componentType":5123,
			"count":84,
			"type":"SCALAR"
		},
		{
			"bufferView":46,
			"componentType":5126,
			"count":4,
			"max":[
				0.2535966634750366,
				-0.436956524848938,
				0.04130437970161438
			],
			"min":[
				0.24707484245300293,
				-0.45108696818351746,
				0.04130437970161438
			],
			"type":"VEC3"
		},
		{
			"bufferView":47,
			"componentType":5126,
			"count":4,
			"type":"VEC3"
		},
		{
			"bufferView":48,
			"componentType":5126,
			"count":889,
			"max":[
				0.36684757471084595,
				-0.8804347515106201,
				0.06521742045879364
			],
			"min":[
				0.31793463230133057,
				-0.9402173757553101,
				2.9802322387695312e-08
			],
			"type":"VEC3"
		},
		{
			"bufferView":49,
			"componentType":5126,
			"count":889,
			"type":"VEC3"
		},
		{
			"bufferView":50,
			"componentType":5123,
			"count":2820,
			"type":"SCALAR"
		},
		{
			"bufferView":51,
			"componentType":5126,
			"count":68,
			"max":[
				0.36195629835128784,
				-0.893478274345398,
				0.0630435049533844
			],
			"min":[
				0.32282590866088867,
				-0.936956524848938,
				0.0630435049533844
			],
			"type":"VEC3"
		},
		{
			"bufferView":52,
			"componentType":5126,
			"count":68,
			"type":"VEC3"
		},
		{
			"bufferView":53,
			"componentType":5123,
			"count":102,
			"type":"SCALAR"
		},
		{
			"bufferView":54,
			"componentType":5126,
			"count":4,
			"max":[
				0.36195629835128784,
				-0.9260869026184082,
				0.0630435049533844
			],
			"min":[
				0.3554345369338989,
				-0.9402173757553101,
				0.0630435049533844
			],
			"type":"VEC3"
		},
		{
			"bufferView":55,
			"componentType":5126,
			"count":4,
			"type":"VEC3"
		}
	],
	"bufferViews":[
		{
			"buffer":0,
			"byteLength":5964,
			"byteOffset":0,
			"target":34962
		},
		{
			"buffer":0,
			"byteLength":5964,
			"byteOffset":5964,
			"target":34962
		},
		{
			"buffer":0,
			"byteLength":2796,
			"byteOffset":11928,
			"target":34963
		},
		{
			"buffer":0,
			"byteLength":432,
			"byteOffset":14724,
			"target":34962
		},
		{
			"buffer":0,
			"byteLength":432,
			"byteOffset":15156,
			"target":34962
		},
		{
			"buffer":0,
			"byteLength":108,
			"byteOffset":15588,
			"target":34963
		},
		{
			"buffer":0,
			"byteLength":48,
			"byteOffset":15696,
			"target":34962
		},
		{
			"buffer":0,
			"byteLength":48,
			"byteOffset":15744,
			"target":34962
		},
		{
			"buffer":0,
			"byteLength":12,
			"byteOffset":15792,
			"target":34963
		},
		{
			"buffer":0,
			"byteLength":3372,
			"byteOffset":15804,
			"target":34962
		},
		{
			"buffer":0,
			"byteLength":3372,
			"byteOffset":19176,
			"target":34962
		},
		{
			"buffer":0,
			"byteLength":1464,
			"byteOffset":22548,
			"target":34963
		},
		{
			"buffer":0,
			"byteLength":240,
			"byteOffset":24012,
			"target":34962
		},
		{
			"buffer":0,
			"byteLength":240,
			"byteOffset":24252,
			"target":34962
		},
		{
			"buffer":0,
			"byteLength":60,
			"byteOffset":24492,
			"target":34963
		},
		{
			"buffer":0,
			"byteLength":48,
			"byteOffset":24552,
			"target":34962
		},
		{
			"buffer":0,
			"byteLength":48,
			"byteOffset":24600,
			"target":34962
		},
		{
			"buffer":0,
			"byteLength":9840,
			"byteOffset":24648,
			"target":34962
		},
		{
			"buffer":0,
			"byteLength":9840,
			"byteOffset":34488,
			"target":34962
		},
		{
			"buffer":0,
			"byteLength":5328,
			"byteOffset":44328,
			"target":34963
		},
		{
			"buffer":0,
			"byteLength":576,
			"byteOffset":49656,
			"target":34962
		},
		{
			"buffer":0,
			"byteLength":576,
			"byteOffset":50232,
			"target":34962
		},
		{
			"buffer":0,
			"byteLength":144,
			"byteOffset":50808,
			"target":34963
		},
		{
			"buffer":0,
			"byteLength":48,
			"byteOffset":50952,
			"target":34962
		},
		{
			"buffer":0,
			"byteLength":48,
			"byteOffset":51000,
			"target":34962
		},
		{
			"buffer":0,
			"byteLength":15204,
			"byteOffset":51048,
			"target":34962
		},
		{
			"buffer":0,
			"byteLength":15204,
			"byteOffset":66252,
			"target":34962
		},
		{
			"buffer":0,
			"byteLength":9024,
			"byteOffset":81456,
			"target":34963
		},
		{
			"buffer":0,
			"byteLength":864,
			"byteOffset":90480,
			"target":34962
		},
		{
			"buffer":0,
			"byteLength":864,
			"byteOffset":91344,
			"target":34962
		},
		{
			"buffer":0,
			"byteLength":216,
			"byteOffset":92208,
			"target":34963
		},
		{
			"buffer":0,
			"byteLength":48,
			"byteOffset":92424,
			"target":34962
		},
		{
			"buffer":0,
			"byteLength":48,
			"byteOffset":92472,
			"target":34962
		},
		{
			"buffer":0,
			"byteLength":5724,
			"byteOffset":92520,
			"target":34962
		},
		{
			"buffer":0,
			"byteLength":5724,
			"byteOffset":98244,
			"target":34962
		},
		{
			"buffer":0,
			"byteLength":2772,
			"byteOffset":103968,
			"target":34963
		},
		{
			"buffer":0,
			"byteLength":432,
			"byteOffset":106740,
			"target":34962
		},
		{
			"buffer":0,
			"byteLength":432,
			"byteOffset":107172,
			"target":34962
		},
		{
			"buffer":0,
			"byteLength":48,
			"byteOffset":107604,
			"target":34962
		},
		{
			"buffer":0,
			"byteLength":48,
			"byteOffset":107652,
			"target":34962
		},
		{
			"buffer":0,
			"byteLength":15084,
			"byteOffset":107700,
			"target":34962
		},
		{
			"buffer":0,
			"byteLength":15084,
			"byteOffset":122784,
			"target":34962
		},
		{
			"buffer":0,
			"byteLength":8892,
			"byteOffset":137868,
			"target":34963
		},
		{
			"buffer":0,
			"byteLength":672,
			"byteOffset":146760,
			"target":34962
		},
		{
			"buffer":0,
			"byteLength":672,
			"byteOffset":147432,
			"target":34962
		},
		{
			"buffer":0,
			"byteLength":168,
			"byteOffset":148104,
			"target":34963
		},
		{
			"buffer":0,
			"byteLength":48,
			"byteOffset":148272,
			"target":34962
		},
		{
			"buffer":0,
			"byteLength":48,
			"byteOffset":148320,
			"target":34962
		},
		{
			"buffer":0,
			"byteLength":10668,
			"byteOffset":148368,
			"target":34962
		},
		{
			"buffer":0,
			"byteLength":10668,
			"byteOffset":159036,
			"target":34962
		},
		{
			"buffer":0,
			"byteLength":5640,
			"byteOffset":169704,
			"target":34963
		},
		{
			"buffer":0,
			"byteLength":816,
			"byteOffset":175344,
			"target":34962
		},
		{
			"buffer":0,
			"byteLength":816,
			"byteOffset":176160,
			"target":34962
		},
		{
			"buffer":0,
			"byteLength":204,
			"byteOffset":176976,
			"target":34963
		},
		{
			"buffer":0,
			"byteLength":48,
			"byteOffset":177180,
			"target":34962
		},
		{
			"buffer":0,
			"byteLength":48,
			"byteOffset":177228,
			"target":34962
		}
	],
	"buffers":[
		{
			"byteLength":177276,
			"uri":"BinaGrup5.bin"
		}
	]
}
