{
	"asset":{
		"generator":"Khronos glTF Blender I/O v4.2.60",
		"version":"2.0"
	},
	"scene":0,
	"scenes":[
		{
			"name":"Scene",
			"nodes":[
				0
			]
		}
	],
	"nodes":[
		{
			"mesh":0,
			"name":"2.2",
			"rotation":[
				0.7071068286895752,
				0,
				0,
				0.7071068286895752
			],
			"scale":[
				4.310130596160889,
				2.17391300201416,
				4.310131549835205
			]
		}
	],
	"materials":[
		{
			"doubleSided":true,
			"name":"Material.002",
			"pbrMetallicRoughness":{
				"baseColorFactor":[
					0.7758182287216187,
					0.18116439878940582,
					0.0030353262554854155,
					1
				],
				"metallicFactor":0,
				"roughnessFactor":0.5
			}
		}
	],
	"meshes":[
		{
			"name":"Text.005",
			"primitives":[
				{
					"attributes":{
						"POSITION":0,
						"NORMAL":1,
						"TEXCOORD_0":2
					},
					"indices":3,
					"material":0
				}
			]
		}
	],
	"accessors":[
		{
			"bufferView":0,
			"componentType":5126,
			"count":3500,
			"max":[
				-0.028191784396767616,
				0.007460012566298246,
				0.02296195551753044
			],
			"min":[
				-0.05205301567912102,
				0.0054600122384727,
				0.015948910266160965
			],
			"type":"VEC3"
		},
		{
			"bufferView":1,
			"componentType":5126,
			"count":3500,
			"type":"VEC3"
		},
		{
			"bufferView":2,
			"componentType":5126,
			"count":3500,
			"type":"VEC2"
		},
		{
			"bufferView":3,
			"componentType":5123,
			"count":10404,
			"type":"SCALAR"
		}
	],
	"bufferViews":[
		{
			"buffer":0,
			"byteLength":42000,
			"byteOffset":0,
			"target":34962
		},
		{
			"buffer":0,
			"byteLength":42000,
			"byteOffset":42000,
			"target":34962
		},
		{
			"buffer":0,
			"byteLength":28000,
			"byteOffset":84000,
			"target":34962
		},
		{
			"buffer":0,
			"byteLength":20808,
			"byteOffset":112000,
			"target":34963
		}
	],
	"buffers":[
		{
			"byteLength":132808,
			"uri":"Soru2.2.bin"
		}
	]
}
