{
	"asset":{
		"generator":"Khronos glTF Blender I/O v4.2.60",
		"version":"2.0"
	},
	"scene":0,
	"scenes":[
		{
			"name":"Scene",
			"nodes":[
				0
			]
		}
	],
	"nodes":[
		{
			"mesh":0,
			"name":"2.3",
			"rotation":[
				0.7071068286895752,
				0,
				0,
				0.7071068286895752
			],
			"scale":[
				4.310130596160889,
				2.17391300201416,
				4.310131549835205
			]
		}
	],
	"materials":[
		{
			"doubleSided":true,
			"name":"Material.002",
			"pbrMetallicRoughness":{
				"baseColorFactor":[
					0.7758182287216187,
					0.18116439878940582,
					0.0030353262554854155,
					1
				],
				"metallicFactor":0,
				"roughnessFactor":0.5
			}
		}
	],
	"meshes":[
		{
			"name":"Text.007",
			"primitives":[
				{
					"attributes":{
						"POSITION":0,
						"NORMAL":1,
						"TEXCOORD_0":2
					},
					"indices":3,
					"material":0
				}
			]
		}
	],
	"accessors":[
		{
			"bufferView":0,
			"componentType":5126,
			"count":4984,
			"max":[
				0.012873911298811436,
				0.007460012566298246,
				0.02546527609229088
			],
			"min":[
				-0.02575409598648548,
				0.0054600122384727,
				0.015939533710479736
			],
			"type":"VEC3"
		},
		{
			"bufferView":1,
			"componentType":5126,
			"count":4984,
			"type":"VEC3"
		},
		{
			"bufferView":2,
			"componentType":5126,
			"count":4984,
			"type":"VEC2"
		},
		{
			"bufferView":3,
			"componentType":5123,
			"count":14808,
			"type":"SCALAR"
		}
	],
	"bufferViews":[
		{
			"buffer":0,
			"byteLength":59808,
			"byteOffset":0,
			"target":34962
		},
		{
			"buffer":0,
			"byteLength":59808,
			"byteOffset":59808,
			"target":34962
		},
		{
			"buffer":0,
			"byteLength":39872,
			"byteOffset":119616,
			"target":34962
		},
		{
			"buffer":0,
			"byteLength":29616,
			"byteOffset":159488,
			"target":34963
		}
	],
	"buffers":[
		{
			"byteLength":189104,
			"uri":"Soru2.3.bin"
		}
	]
}
