{
	"asset":{
		"generator":"Khronos glTF Blender I/O v4.2.60",
		"version":"2.0"
	},
	"scene":0,
	"scenes":[
		{
			"name":"Scene",
			"nodes":[
				0,
				1,
				2,
				3
			]
		}
	],
	"nodes":[
		{
			"mesh":0,
			"name":"1.2",
			"rotation":[
				0.7071068286895752,
				0,
				0,
				0.7071068286895752
			],
			"scale":[
				4.310130596160889,
				2.17391300201416,
				4.310131549835205
			]
		},
		{
			"mesh":1,
			"name":"1.4",
			"rotation":[
				0.7071068286895752,
				0,
				0,
				0.7071068286895752
			],
			"scale":[
				4.310130596160889,
				2.17391300201416,
				4.310131549835205
			]
		},
		{
			"mesh":2,
			"name":"1.3",
			"rotation":[
				0.7071068286895752,
				0,
				0,
				0.7071068286895752
			],
			"scale":[
				4.310130596160889,
				2.17391300201416,
				4.310131549835205
			]
		},
		{
			"mesh":3,
			"name":"1.005",
			"rotation":[
				0.7071068286895752,
				0,
				0,
				0.7071068286895752
			],
			"scale":[
				4.310130596160889,
				2.17391300201416,
				4.310131549835205
			]
		}
	],
	"materials":[
		{
			"doubleSided":true,
			"name":"Material.002",
			"pbrMetallicRoughness":{
				"baseColorFactor":[
					0.7758182287216187,
					0.18116439878940582,
					0.0030353262554854155,
					1
				],
				"metallicFactor":0,
				"roughnessFactor":0.5
			}
		}
	],
	"meshes":[
		{
			"name":"Text.006",
			"primitives":[
				{
					"attributes":{
						"POSITION":0,
						"NORMAL":1,
						"TEXCOORD_0":2
					},
					"indices":3,
					"material":0
				}
			]
		},
		{
			"name":"Text.003",
			"primitives":[
				{
					"attributes":{
						"POSITION":4,
						"NORMAL":5,
						"TEXCOORD_0":6
					},
					"indices":7,
					"material":0
				}
			]
		},
		{
			"name":"Text.004",
			"primitives":[
				{
					"attributes":{
						"POSITION":8,
						"NORMAL":9,
						"TEXCOORD_0":10
					},
					"indices":11,
					"material":0
				}
			]
		},
		{
			"name":"Text.020",
			"primitives":[
				{
					"attributes":{
						"POSITION":12,
						"NORMAL":13,
						"TEXCOORD_0":14
					},
					"indices":15,
					"material":0
				}
			]
		}
	],
	"accessors":[
		{
			"bufferView":0,
			"componentType":5126,
			"count":2191,
			"max":[
				-0.05302806571125984,
				0.0074600218795239925,
				-0.02738683857023716
			],
			"min":[
				-0.08098649233579636,
				0.005460021551698446,
				-0.03517806902527809
			],
			"type":"VEC3"
		},
		{
			"bufferView":1,
			"componentType":5126,
			"count":2191,
			"type":"VEC3"
		},
		{
			"bufferView":2,
			"componentType":5126,
			"count":2191,
			"type":"VEC2"
		},
		{
			"bufferView":3,
			"componentType":5123,
			"count":6396,
			"type":"SCALAR"
		},
		{
			"bufferView":4,
			"componentType":5126,
			"count":834,
			"max":[
				0.004763930104672909,
				0.0074600218795239925,
				-0.02987140603363514
			],
			"min":[
				-0.0033554518595337868,
				0.005460021551698446,
				-0.0373813658952713
			],
			"type":"VEC3"
		},
		{
			"bufferView":5,
			"componentType":5126,
			"count":834,
			"type":"VEC3"
		},
		{
			"bufferView":6,
			"componentType":5126,
			"count":834,
			"type":"VEC2"
		},
		{
			"bufferView":7,
			"componentType":5123,
			"count":2412,
			"type":"SCALAR"
		},
		{
			"bufferView":8,
			"componentType":5126,
			"count":6250,
			"max":[
				-0.006177546456456184,
				0.0074600218795239925,
				-0.02729308046400547
			],
			"min":[
				-0.0504591166973114,
				0.005460021551698446,
				-0.0373813658952713
			],
			"type":"VEC3"
		},
		{
			"bufferView":9,
			"componentType":5126,
			"count":6250,
			"type":"VEC3"
		},
		{
			"bufferView":10,
			"componentType":5126,
			"count":6250,
			"type":"VEC2"
		},
		{
			"bufferView":11,
			"componentType":5123,
			"count":18444,
			"type":"SCALAR"
		},
		{
			"bufferView":12,
			"componentType":5126,
			"count":1068,
			"max":[
				-0.08358357101678848,
				0.007460021413862705,
				-0.029796401038765907
			],
			"min":[
				-0.10391952842473984,
				0.005460021086037159,
				-0.03645316883921623
			],
			"type":"VEC3"
		},
		{
			"bufferView":13,
			"componentType":5126,
			"count":1068,
			"type":"VEC3"
		},
		{
			"bufferView":14,
			"componentType":5126,
			"count":1068,
			"type":"VEC2"
		},
		{
			"bufferView":15,
			"componentType":5123,
			"count":3156,
			"type":"SCALAR"
		}
	],
	"bufferViews":[
		{
			"buffer":0,
			"byteLength":26292,
			"byteOffset":0,
			"target":34962
		},
		{
			"buffer":0,
			"byteLength":26292,
			"byteOffset":26292,
			"target":34962
		},
		{
			"buffer":0,
			"byteLength":17528,
			"byteOffset":52584,
			"target":34962
		},
		{
			"buffer":0,
			"byteLength":12792,
			"byteOffset":70112,
			"target":34963
		},
		{
			"buffer":0,
			"byteLength":10008,
			"byteOffset":82904,
			"target":34962
		},
		{
			"buffer":0,
			"byteLength":10008,
			"byteOffset":92912,
			"target":34962
		},
		{
			"buffer":0,
			"byteLength":6672,
			"byteOffset":102920,
			"target":34962
		},
		{
			"buffer":0,
			"byteLength":4824,
			"byteOffset":109592,
			"target":34963
		},
		{
			"buffer":0,
			"byteLength":75000,
			"byteOffset":114416,
			"target":34962
		},
		{
			"buffer":0,
			"byteLength":75000,
			"byteOffset":189416,
			"target":34962
		},
		{
			"buffer":0,
			"byteLength":50000,
			"byteOffset":264416,
			"target":34962
		},
		{
			"buffer":0,
			"byteLength":36888,
			"byteOffset":314416,
			"target":34963
		},
		{
			"buffer":0,
			"byteLength":12816,
			"byteOffset":351304,
			"target":34962
		},
		{
			"buffer":0,
			"byteLength":12816,
			"byteOffset":364120,
			"target":34962
		},
		{
			"buffer":0,
			"byteLength":8544,
			"byteOffset":376936,
			"target":34962
		},
		{
			"buffer":0,
			"byteLength":6312,
			"byteOffset":385480,
			"target":34963
		}
	],
	"buffers":[
		{
			"byteLength":391792,
			"uri":"Soru1.1.bin"
		}
	]
}
