{
	"asset":{
		"generator":"Khronos glTF Blender I/O v4.2.60",
		"version":"2.0"
	},
	"scene":0,
	"scenes":[
		{
			"name":"Scene",
			"nodes":[
				1
			]
		}
	],
	"nodes":[
		{
			"mesh":0,
			"name":"Cube.001",
			"rotation":[
				0.5000000596046448,
				-0.5,
				-0.4999999701976776,
				0.5
			],
			"scale":[
				1.6666550636291504,
				4.715109825134277,
				1.3333332538604736
			],
			"translation":[
				-0.4820672869682312,
				1.0009242296218872,
				-0.31745147705078125
			]
		},
		{
			"children":[
				0
			],
			"name":"Empty",
			"rotation":[
				0,
				0.2588190734386444,
				0,
				0.965925931930542
			],
			"scale":[
				1,
				1,
				0.0009999871253967285
			],
			"translation":[
				0.5762064456939697,
				-1.0009241104125977,
				0.03388424590229988
			]
		}
	],
	"animations":[
		{
			"channels":[
				{
					"sampler":0,
					"target":{
						"node":1,
						"path":"scale"
					}
				}
			],
			"name":"EmptyAction.001",
			"samplers":[
				{
					"input":3,
					"interpolation":"LINEAR",
					"output":4
				}
			]
		}
	],
	"materials":[
		{
			"doubleSided":true,
			"name":"PencereSolar.008",
			"pbrMetallicRoughness":{
				"baseColorFactor":[
					0.9822452664375305,
					0.38132646679878235,
					0.0030353753827512264,
					1
				],
				"metallicFactor":0,
				"roughnessFactor":0.5
			}
		}
	],
	"meshes":[
		{
			"name":"Cube.001",
			"primitives":[
				{
					"attributes":{
						"POSITION":0,
						"NORMAL":1
					},
					"indices":2,
					"material":0
				}
			]
		}
	],
	"accessors":[
		{
			"bufferView":0,
			"componentType":5126,
			"count":24,
			"max":[
				0.6043087840080261,
				0.067324198782444,
				-0.3578004837036133
			],
			"min":[
				0.5968087315559387,
				0.04222030192613602,
				-0.3653004765510559
			],
			"type":"VEC3"
		},
		{
			"bufferView":1,
			"componentType":5126,
			"count":24,
			"type":"VEC3"
		},
		{
			"bufferView":2,
			"componentType":5123,
			"count":36,
			"type":"SCALAR"
		},
		{
			"bufferView":3,
			"componentType":5126,
			"count":25,
			"max":[
				1
			],
			"min":[
				0
			],
			"type":"SCALAR"
		},
		{
			"bufferView":4,
			"componentType":5126,
			"count":25,
			"type":"VEC3"
		}
	],
	"bufferViews":[
		{
			"buffer":0,
			"byteLength":288,
			"byteOffset":0,
			"target":34962
		},
		{
			"buffer":0,
			"byteLength":288,
			"byteOffset":288,
			"target":34962
		},
		{
			"buffer":0,
			"byteLength":72,
			"byteOffset":576,
			"target":34963
		},
		{
			"buffer":0,
			"byteLength":100,
			"byteOffset":648
		},
		{
			"buffer":0,
			"byteLength":300,
			"byteOffset":748
		}
	],
	"buffers":[
		{
			"byteLength":1048,
			"uri":"BarV2-9.bin"
		}
	]
}
