{
	"asset":{
		"generator":"Khronos glTF Blender I/O v4.2.60",
		"version":"2.0"
	},
	"scene":0,
	"scenes":[
		{
			"name":"Scene",
			"nodes":[
				0,
				1,
				2,
				3,
				4,
				5,
				6,
				7,
				8,
				9,
				10,
				11,
				12,
				13,
				14,
				15,
				16,
				17,
				18,
				19,
				20,
				21,
				22,
				23
			]
		}
	],
	"nodes":[
		{
			"mesh":0,
			"name":"Building_024.010"
		},
		{
			"mesh":1,
			"name":"Building_024_RoofCap_0.003"
		},
		{
			"mesh":2,
			"name":"Building_024.014"
		},
		{
			"mesh":3,
			"name":"Building_024.015"
		},
		{
			"mesh":4,
			"name":"Building_042.010"
		},
		{
			"mesh":5,
			"name":"Building_042_RoofCap_0.003"
		},
		{
			"mesh":6,
			"name":"Building_042_RoofCap_1.003"
		},
		{
			"mesh":7,
			"name":"Building_042.014"
		},
		{
			"mesh":8,
			"name":"Building_042.015"
		},
		{
			"mesh":9,
			"name":"Building_051.010"
		},
		{
			"mesh":10,
			"name":"Building_051_RoofCap_0.003"
		},
		{
			"mesh":11,
			"name":"Building_051_RoofCap_1.003"
		},
		{
			"mesh":12,
			"name":"Building_051.014"
		},
		{
			"mesh":13,
			"name":"Building_056.010"
		},
		{
			"mesh":14,
			"name":"Building_056_RoofCap_0.003"
		},
		{
			"mesh":15,
			"name":"Building_056_RoofCap_1.003"
		},
		{
			"mesh":16,
			"name":"Building_056.014"
		},
		{
			"mesh":17,
			"name":"Building_056.015"
		},
		{
			"mesh":18,
			"name":"Building_021.010"
		},
		{
			"mesh":19,
			"name":"Building_021_RoofCap_0.003"
		},
		{
			"mesh":20,
			"name":"Building_021_RoofCap_1.003"
		},
		{
			"mesh":21,
			"name":"Building_021.014"
		},
		{
			"mesh":22,
			"name":"Building_021.015"
		},
		{
			"mesh":23,
			"name":"Building_051.015"
		}
	],
	"materials":[
		{
			"doubleSided":true,
			"name":"BinaSolar",
			"pbrMetallicRoughness":{
				"baseColorFactor":[
					0,
					0.08021967113018036,
					0.7230553030967712,
					1
				],
				"metallicFactor":0,
				"roughnessFactor":0.699999988079071
			}
		},
		{
			"doubleSided":true,
			"name":"Mat_Roof_Cap",
			"pbrMetallicRoughness":{
				"baseColorFactor":[
					0.9822452664375305,
					0.38132646679878235,
					0.0030353753827512264,
					1
				],
				"metallicFactor":0,
				"roughnessFactor":0.699999988079071
			}
		},
		{
			"doubleSided":true,
			"name":"PencereSolarKapal\u0131",
			"pbrMetallicRoughness":{
				"baseColorFactor":[
					0,
					0.04817177355289459,
					0.3185468912124634,
					1
				],
				"metallicFactor":0,
				"roughnessFactor":0.699999988079071
			}
		}
	],
	"meshes":[
		{
			"name":"Building_024_Mesh.014",
			"primitives":[
				{
					"attributes":{
						"POSITION":0,
						"NORMAL":1
					},
					"indices":2,
					"material":0
				}
			]
		},
		{
			"name":"Building_024_RoofCap_0_Mesh.002",
			"primitives":[
				{
					"attributes":{
						"POSITION":3,
						"NORMAL":4
					},
					"indices":5,
					"material":1
				}
			]
		},
		{
			"name":"Building_024_Mesh.016",
			"primitives":[
				{
					"attributes":{
						"POSITION":6,
						"NORMAL":7
					},
					"indices":8,
					"material":2
				}
			]
		},
		{
			"name":"Building_024_Mesh.017",
			"primitives":[
				{
					"attributes":{
						"POSITION":9,
						"NORMAL":10
					},
					"indices":11,
					"material":2
				}
			]
		},
		{
			"name":"Building_042_Mesh.024",
			"primitives":[
				{
					"attributes":{
						"POSITION":12,
						"NORMAL":13
					},
					"indices":14,
					"material":0
				}
			]
		},
		{
			"name":"Building_042_RoofCap_0_Mesh.002",
			"primitives":[
				{
					"attributes":{
						"POSITION":15,
						"NORMAL":16
					},
					"indices":17,
					"material":1
				}
			]
		},
		{
			"name":"Building_042_RoofCap_1_Mesh.002",
			"primitives":[
				{
					"attributes":{
						"POSITION":18,
						"NORMAL":19
					},
					"indices":20,
					"material":1
				}
			]
		},
		{
			"name":"Building_042_Mesh.025",
			"primitives":[
				{
					"attributes":{
						"POSITION":21,
						"NORMAL":22
					},
					"indices":23,
					"material":2
				}
			]
		},
		{
			"name":"Building_042_Mesh.026",
			"primitives":[
				{
					"attributes":{
						"POSITION":24,
						"NORMAL":25
					},
					"indices":11,
					"material":2
				}
			]
		},
		{
			"name":"Building_051_Mesh.024",
			"primitives":[
				{
					"attributes":{
						"POSITION":26,
						"NORMAL":27
					},
					"indices":28,
					"material":0
				}
			]
		},
		{
			"name":"Building_051_RoofCap_0_Mesh.002",
			"primitives":[
				{
					"attributes":{
						"POSITION":29,
						"NORMAL":30
					},
					"indices":17,
					"material":1
				}
			]
		},
		{
			"name":"Building_051_RoofCap_1_Mesh.002",
			"primitives":[
				{
					"attributes":{
						"POSITION":31,
						"NORMAL":32
					},
					"indices":33,
					"material":1
				}
			]
		},
		{
			"name":"Building_051_Mesh.025",
			"primitives":[
				{
					"attributes":{
						"POSITION":34,
						"NORMAL":35
					},
					"indices":36,
					"material":2
				}
			]
		},
		{
			"name":"Building_056_Mesh.024",
			"primitives":[
				{
					"attributes":{
						"POSITION":37,
						"NORMAL":38
					},
					"indices":39,
					"material":0
				}
			]
		},
		{
			"name":"Building_056_RoofCap_0_Mesh.002",
			"primitives":[
				{
					"attributes":{
						"POSITION":40,
						"NORMAL":41
					},
					"indices":17,
					"material":1
				}
			]
		},
		{
			"name":"Building_056_RoofCap_1_Mesh.002",
			"primitives":[
				{
					"attributes":{
						"POSITION":42,
						"NORMAL":43
					},
					"indices":44,
					"material":1
				}
			]
		},
		{
			"name":"Building_056_Mesh.025",
			"primitives":[
				{
					"attributes":{
						"POSITION":45,
						"NORMAL":46
					},
					"indices":8,
					"material":2
				}
			]
		},
		{
			"name":"Building_056_Mesh.026",
			"primitives":[
				{
					"attributes":{
						"POSITION":47,
						"NORMAL":48
					},
					"indices":11,
					"material":2
				}
			]
		},
		{
			"name":"Building_021_Mesh.014",
			"primitives":[
				{
					"attributes":{
						"POSITION":49,
						"NORMAL":50
					},
					"indices":51,
					"material":0
				}
			]
		},
		{
			"name":"Building_021_RoofCap_0_Mesh.002",
			"primitives":[
				{
					"attributes":{
						"POSITION":52,
						"NORMAL":53
					},
					"indices":17,
					"material":1
				}
			]
		},
		{
			"name":"Building_021_RoofCap_1_Mesh.002",
			"primitives":[
				{
					"attributes":{
						"POSITION":54,
						"NORMAL":55
					},
					"indices":20,
					"material":1
				}
			]
		},
		{
			"name":"Building_021_Mesh.016",
			"primitives":[
				{
					"attributes":{
						"POSITION":56,
						"NORMAL":57
					},
					"indices":58,
					"material":2
				}
			]
		},
		{
			"name":"Building_021_Mesh.017",
			"primitives":[
				{
					"attributes":{
						"POSITION":59,
						"NORMAL":60
					},
					"indices":11,
					"material":2
				}
			]
		},
		{
			"name":"Building_051_Mesh.027",
			"primitives":[
				{
					"attributes":{
						"POSITION":61,
						"NORMAL":62
					},
					"indices":11,
					"material":2
				}
			]
		}
	],
	"accessors":[
		{
			"bufferView":0,
			"componentType":5126,
			"count":831,
			"max":[
				-0.16576096415519714,
				-0.299999862909317,
				0.043478164821863174
			],
			"min":[
				-0.2146739959716797,
				-0.3532607853412628,
				-9.313225746154785e-08
			],
			"type":"VEC3"
		},
		{
			"bufferView":1,
			"componentType":5126,
			"count":831,
			"type":"VEC3"
		},
		{
			"bufferView":2,
			"componentType":5123,
			"count":2724,
			"type":"SCALAR"
		},
		{
			"bufferView":3,
			"componentType":5126,
			"count":24,
			"max":[
				-0.17247262597084045,
				-0.29445144534111023,
				0.03505215421319008
			],
			"min":[
				-0.2116030752658844,
				-0.29986944794654846,
				0.008695557713508606
			],
			"type":"VEC3"
		},
		{
			"bufferView":4,
			"componentType":5126,
			"count":24,
			"type":"VEC3"
		},
		{
			"bufferView":5,
			"componentType":5123,
			"count":36,
			"type":"SCALAR"
		},
		{
			"bufferView":6,
			"componentType":5126,
			"count":56,
			"max":[
				-0.17065224051475525,
				-0.30652162432670593,
				0.04130425676703453
			],
			"min":[
				-0.2097826898097992,
				-0.34782591462135315,
				0.04130425676703453
			],
			"type":"VEC3"
		},
		{
			"bufferView":7,
			"componentType":5126,
			"count":56,
			"type":"VEC3"
		},
		{
			"bufferView":8,
			"componentType":5123,
			"count":84,
			"type":"SCALAR"
		},
		{
			"bufferView":9,
			"componentType":5126,
			"count":4,
			"max":[
				-0.18152180314064026,
				-0.33913031220436096,
				0.04130425676703453
			],
			"min":[
				-0.19891312718391418,
				-0.3532607853412628,
				0.04130425676703453
			],
			"type":"VEC3"
		},
		{
			"bufferView":10,
			"componentType":5126,
			"count":4,
			"type":"VEC3"
		},
		{
			"bufferView":11,
			"componentType":5123,
			"count":6,
			"type":"SCALAR"
		},
		{
			"bufferView":12,
			"componentType":5126,
			"count":515,
			"max":[
				-0.08967399597167969,
				-0.3054347038269043,
				0.05434782803058624
			],
			"min":[
				-0.13858702778816223,
				-0.3532608151435852,
				3.725290298461914e-09
			],
			"type":"VEC3"
		},
		{
			"bufferView":13,
			"componentType":5126,
			"count":515,
			"type":"VEC3"
		},
		{
			"bufferView":14,
			"componentType":5123,
			"count":1434,
			"type":"SCALAR"
		},
		{
			"bufferView":15,
			"componentType":5126,
			"count":24,
			"max":[
				-0.09718874096870422,
				-0.30545979738235474,
				0.04972041770815849
			],
			"min":[
				-0.12653657793998718,
				-0.3139999508857727,
				0.03260870277881622
			],
			"type":"VEC3"
		},
		{
			"bufferView":16,
			"componentType":5126,
			"count":24,
			"type":"VEC3"
		},
		{
			"bufferView":17,
			"componentType":5123,
			"count":36,
			"type":"SCALAR"
		},
		{
			"bufferView":18,
			"componentType":5126,
			"count":24,
			"max":[
				-0.10014387965202332,
				-0.30545979738235474,
				0.021739136427640915
			],
			"min":[
				-0.12949171662330627,
				-0.3139999508857727,
				0.0046274177730083466
			],
			"type":"VEC3"
		},
		{
			"bufferView":19,
			"componentType":5126,
			"count":24,
			"type":"VEC3"
		},
		{
			"bufferView":20,
			"componentType":5123,
			"count":36,
			"type":"SCALAR"
		},
		{
			"bufferView":21,
			"componentType":5126,
			"count":28,
			"max":[
				-0.09456530213356018,
				-0.322826087474823,
				0.0521739199757576
			],
			"min":[
				-0.13369575142860413,
				-0.34999996423721313,
				0.0521739199757576
			],
			"type":"VEC3"
		},
		{
			"bufferView":22,
			"componentType":5126,
			"count":28,
			"type":"VEC3"
		},
		{
			"bufferView":23,
			"componentType":5123,
			"count":42,
			"type":"SCALAR"
		},
		{
			"bufferView":24,
			"componentType":5126,
			"count":4,
			"max":[
				-0.10543489456176758,
				-0.3391304016113281,
				0.0521739199757576
			],
			"min":[
				-0.12282615900039673,
				-0.3532608151435852,
				0.0521739199757576
			],
			"type":"VEC3"
		},
		{
			"bufferView":25,
			"componentType":5126,
			"count":4,
			"type":"VEC3"
		},
		{
			"bufferView":26,
			"componentType":5126,
			"count":874,
			"max":[
				-0.013587027788162231,
				-0.29347819089889526,
				0.05434776097536087
			],
			"min":[
				-0.06250002980232239,
				-0.3532607853412628,
				-5.960464477539063e-08
			],
			"type":"VEC3"
		},
		{
			"bufferView":27,
			"componentType":5126,
			"count":874,
			"type":"VEC3"
		},
		{
			"bufferView":28,
			"componentType":5123,
			"count":2829,
			"type":"SCALAR"
		},
		{
			"bufferView":29,
			"componentType":5126,
			"count":24,
			"max":[
				-0.02128949761390686,
				-0.2918425500392914,
				0.05213770270347595
			],
			"min":[
				-0.05063733458518982,
				-0.29917386174201965,
				0.0298912450671196
			],
			"type":"VEC3"
		},
		{
			"bufferView":30,
			"componentType":5126,
			"count":24,
			"type":"VEC3"
		},
		{
			"bufferView":31,
			"componentType":5126,
			"count":24,
			"max":[
				-0.015781313180923462,
				-0.29323387145996094,
				0.01902167685329914
			],
			"min":[
				-0.05491176247596741,
				-0.2979564368724823,
				0.007644781842827797
			],
			"type":"VEC3"
		},
		{
			"bufferView":32,
			"componentType":5126,
			"count":24,
			"type":"VEC3"
		},
		{
			"bufferView":33,
			"componentType":5123,
			"count":36,
			"type":"SCALAR"
		},
		{
			"bufferView":34,
			"componentType":5126,
			"count":63,
			"max":[
				-0.018478363752365112,
				-0.3065216839313507,
				0.05217385292053223
			],
			"min":[
				-0.05760875344276428,
				-0.34565213322639465,
				0.05217385292053223
			],
			"type":"VEC3"
		},
		{
			"bufferView":35,
			"componentType":5126,
			"count":63,
			"type":"VEC3"
		},
		{
			"bufferView":36,
			"componentType":5123,
			"count":93,
			"type":"SCALAR"
		},
		{
			"bufferView":37,
			"componentType":5126,
			"count":857,
			"max":[
				0.06249985098838806,
				-0.28913044929504395,
				0.04347819834947586
			],
			"min":[
				0.013586848974227905,
				-0.3532608151435852,
				-6.146728992462158e-08
			],
			"type":"VEC3"
		},
		{
			"bufferView":38,
			"componentType":5126,
			"count":857,
			"type":"VEC3"
		},
		{
			"bufferView":39,
			"componentType":5123,
			"count":2736,
			"type":"SCALAR"
		},
		{
			"bufferView":40,
			"componentType":5126,
			"count":24,
			"max":[
				0.05846086144447327,
				-0.28922945261001587,
				0.04010257124900818
			],
			"min":[
				0.01933041214942932,
				-0.2976956367492676,
				0.026086894795298576
			],
			"type":"VEC3"
		},
		{
			"bufferView":41,
			"componentType":5126,
			"count":24,
			"type":"VEC3"
		},
		{
			"bufferView":42,
			"componentType":5126,
			"count":24,
			"max":[
				0.06075289845466614,
				-0.2880990505218506,
				0.019565153867006302
			],
			"min":[
				0.021622449159622192,
				-0.29873913526535034,
				0.0012016482651233673
			],
			"type":"VEC3"
		},
		{
			"bufferView":43,
			"componentType":5126,
			"count":24,
			"type":"VEC3"
		},
		{
			"bufferView":44,
			"componentType":5123,
			"count":36,
			"type":"SCALAR"
		},
		{
			"bufferView":45,
			"componentType":5126,
			"count":56,
			"max":[
				0.057608574628829956,
				-0.3065217137336731,
				0.04130428284406662
			],
			"min":[
				0.01847812533378601,
				-0.34565216302871704,
				0.04130428284406662
			],
			"type":"VEC3"
		},
		{
			"bufferView":46,
			"componentType":5126,
			"count":56,
			"type":"VEC3"
		},
		{
			"bufferView":47,
			"componentType":5126,
			"count":4,
			"max":[
				0.046739012002944946,
				-0.3391304016113281,
				0.04130428284406662
			],
			"min":[
				0.02934768795967102,
				-0.3532608151435852,
				0.04130428284406662
			],
			"type":"VEC3"
		},
		{
			"bufferView":48,
			"componentType":5126,
			"count":4,
			"type":"VEC3"
		},
		{
			"bufferView":49,
			"componentType":5126,
			"count":497,
			"max":[
				-0.2500000596046448,
				-0.28913038969039917,
				0.04227645322680473
			],
			"min":[
				-0.2826087474822998,
				-0.3532608151435852,
				-0.001201803795993328
			],
			"type":"VEC3"
		},
		{
			"bufferView":50,
			"componentType":5126,
			"count":497,
			"type":"VEC3"
		},
		{
			"bufferView":51,
			"componentType":5123,
			"count":1398,
			"type":"SCALAR"
		},
		{
			"bufferView":52,
			"componentType":5126,
			"count":24,
			"max":[
				-0.2527666985988617,
				-0.2880990505218506,
				0.04107474535703659
			],
			"min":[
				-0.26581019163131714,
				-0.29873913526535034,
				0.022711236029863358
			],
			"type":"VEC3"
		},
		{
			"bufferView":53,
			"componentType":5126,
			"count":24,
			"type":"VEC3"
		},
		{
			"bufferView":54,
			"componentType":5126,
			"count":24,
			"max":[
				-0.25848275423049927,
				-0.2880990505218506,
				0.018363412469625473
			],
			"min":[
				-0.27804797887802124,
				-0.29873913526535034,
				-9.406358003616333e-08
			],
			"type":"VEC3"
		},
		{
			"bufferView":55,
			"componentType":5126,
			"count":24,
			"type":"VEC3"
		},
		{
			"bufferView":56,
			"componentType":5126,
			"count":36,
			"max":[
				-0.2554348409175873,
				-0.3065217137336731,
				0.04010253772139549
			],
			"min":[
				-0.2771739661693573,
				-0.3500000238418579,
				0.04010253772139549
			],
			"type":"VEC3"
		},
		{
			"bufferView":57,
			"componentType":5126,
			"count":36,
			"type":"VEC3"
		},
		{
			"bufferView":58,
			"componentType":5123,
			"count":54,
			"type":"SCALAR"
		},
		{
			"bufferView":59,
			"componentType":5126,
			"count":4,
			"max":[
				-0.26847830414772034,
				-0.3391304016113281,
				0.04010254144668579
			],
			"min":[
				-0.2771739661693573,
				-0.3532608151435852,
				0.04010254144668579
			],
			"type":"VEC3"
		},
		{
			"bufferView":60,
			"componentType":5126,
			"count":4,
			"type":"VEC3"
		},
		{
			"bufferView":61,
			"componentType":5126,
			"count":4,
			"max":[
				-0.018478333950042725,
				-0.33913034200668335,
				0.05217385292053223
			],
			"min":[
				-0.02500009536743164,
				-0.3532608151435852,
				0.05217385292053223
			],
			"type":"VEC3"
		},
		{
			"bufferView":62,
			"componentType":5126,
			"count":4,
			"type":"VEC3"
		}
	],
	"bufferViews":[
		{
			"buffer":0,
			"byteLength":9972,
			"byteOffset":0,
			"target":34962
		},
		{
			"buffer":0,
			"byteLength":9972,
			"byteOffset":9972,
			"target":34962
		},
		{
			"buffer":0,
			"byteLength":5448,
			"byteOffset":19944,
			"target":34963
		},
		{
			"buffer":0,
			"byteLength":288,
			"byteOffset":25392,
			"target":34962
		},
		{
			"buffer":0,
			"byteLength":288,
			"byteOffset":25680,
			"target":34962
		},
		{
			"buffer":0,
			"byteLength":72,
			"byteOffset":25968,
			"target":34963
		},
		{
			"buffer":0,
			"byteLength":672,
			"byteOffset":26040,
			"target":34962
		},
		{
			"buffer":0,
			"byteLength":672,
			"byteOffset":26712,
			"target":34962
		},
		{
			"buffer":0,
			"byteLength":168,
			"byteOffset":27384,
			"target":34963
		},
		{
			"buffer":0,
			"byteLength":48,
			"byteOffset":27552,
			"target":34962
		},
		{
			"buffer":0,
			"byteLength":48,
			"byteOffset":27600,
			"target":34962
		},
		{
			"buffer":0,
			"byteLength":12,
			"byteOffset":27648,
			"target":34963
		},
		{
			"buffer":0,
			"byteLength":6180,
			"byteOffset":27660,
			"target":34962
		},
		{
			"buffer":0,
			"byteLength":6180,
			"byteOffset":33840,
			"target":34962
		},
		{
			"buffer":0,
			"byteLength":2868,
			"byteOffset":40020,
			"target":34963
		},
		{
			"buffer":0,
			"byteLength":288,
			"byteOffset":42888,
			"target":34962
		},
		{
			"buffer":0,
			"byteLength":288,
			"byteOffset":43176,
			"target":34962
		},
		{
			"buffer":0,
			"byteLength":72,
			"byteOffset":43464,
			"target":34963
		},
		{
			"buffer":0,
			"byteLength":288,
			"byteOffset":43536,
			"target":34962
		},
		{
			"buffer":0,
			"byteLength":288,
			"byteOffset":43824,
			"target":34962
		},
		{
			"buffer":0,
			"byteLength":72,
			"byteOffset":44112,
			"target":34963
		},
		{
			"buffer":0,
			"byteLength":336,
			"byteOffset":44184,
			"target":34962
		},
		{
			"buffer":0,
			"byteLength":336,
			"byteOffset":44520,
			"target":34962
		},
		{
			"buffer":0,
			"byteLength":84,
			"byteOffset":44856,
			"target":34963
		},
		{
			"buffer":0,
			"byteLength":48,
			"byteOffset":44940,
			"target":34962
		},
		{
			"buffer":0,
			"byteLength":48,
			"byteOffset":44988,
			"target":34962
		},
		{
			"buffer":0,
			"byteLength":10488,
			"byteOffset":45036,
			"target":34962
		},
		{
			"buffer":0,
			"byteLength":10488,
			"byteOffset":55524,
			"target":34962
		},
		{
			"buffer":0,
			"byteLength":5658,
			"byteOffset":66012,
			"target":34963
		},
		{
			"buffer":0,
			"byteLength":288,
			"byteOffset":71672,
			"target":34962
		},
		{
			"buffer":0,
			"byteLength":288,
			"byteOffset":71960,
			"target":34962
		},
		{
			"buffer":0,
			"byteLength":288,
			"byteOffset":72248,
			"target":34962
		},
		{
			"buffer":0,
			"byteLength":288,
			"byteOffset":72536,
			"target":34962
		},
		{
			"buffer":0,
			"byteLength":72,
			"byteOffset":72824,
			"target":34963
		},
		{
			"buffer":0,
			"byteLength":756,
			"byteOffset":72896,
			"target":34962
		},
		{
			"buffer":0,
			"byteLength":756,
			"byteOffset":73652,
			"target":34962
		},
		{
			"buffer":0,
			"byteLength":186,
			"byteOffset":74408,
			"target":34963
		},
		{
			"buffer":0,
			"byteLength":10284,
			"byteOffset":74596,
			"target":34962
		},
		{
			"buffer":0,
			"byteLength":10284,
			"byteOffset":84880,
			"target":34962
		},
		{
			"buffer":0,
			"byteLength":5472,
			"byteOffset":95164,
			"target":34963
		},
		{
			"buffer":0,
			"byteLength":288,
			"byteOffset":100636,
			"target":34962
		},
		{
			"buffer":0,
			"byteLength":288,
			"byteOffset":100924,
			"target":34962
		},
		{
			"buffer":0,
			"byteLength":288,
			"byteOffset":101212,
			"target":34962
		},
		{
			"buffer":0,
			"byteLength":288,
			"byteOffset":101500,
			"target":34962
		},
		{
			"buffer":0,
			"byteLength":72,
			"byteOffset":101788,
			"target":34963
		},
		{
			"buffer":0,
			"byteLength":672,
			"byteOffset":101860,
			"target":34962
		},
		{
			"buffer":0,
			"byteLength":672,
			"byteOffset":102532,
			"target":34962
		},
		{
			"buffer":0,
			"byteLength":48,
			"byteOffset":103204,
			"target":34962
		},
		{
			"buffer":0,
			"byteLength":48,
			"byteOffset":103252,
			"target":34962
		},
		{
			"buffer":0,
			"byteLength":5964,
			"byteOffset":103300,
			"target":34962
		},
		{
			"buffer":0,
			"byteLength":5964,
			"byteOffset":109264,
			"target":34962
		},
		{
			"buffer":0,
			"byteLength":2796,
			"byteOffset":115228,
			"target":34963
		},
		{
			"buffer":0,
			"byteLength":288,
			"byteOffset":118024,
			"target":34962
		},
		{
			"buffer":0,
			"byteLength":288,
			"byteOffset":118312,
			"target":34962
		},
		{
			"buffer":0,
			"byteLength":288,
			"byteOffset":118600,
			"target":34962
		},
		{
			"buffer":0,
			"byteLength":288,
			"byteOffset":118888,
			"target":34962
		},
		{
			"buffer":0,
			"byteLength":432,
			"byteOffset":119176,
			"target":34962
		},
		{
			"buffer":0,
			"byteLength":432,
			"byteOffset":119608,
			"target":34962
		},
		{
			"buffer":0,
			"byteLength":108,
			"byteOffset":120040,
			"target":34963
		},
		{
			"buffer":0,
			"byteLength":48,
			"byteOffset":120148,
			"target":34962
		},
		{
			"buffer":0,
			"byteLength":48,
			"byteOffset":120196,
			"target":34962
		},
		{
			"buffer":0,
			"byteLength":48,
			"byteOffset":120244,
			"target":34962
		},
		{
			"buffer":0,
			"byteLength":48,
			"byteOffset":120292,
			"target":34962
		}
	],
	"buffers":[
		{
			"byteLength":120340,
			"uri":"binalar.bin"
		}
	]
}
