{
	"asset":{
		"generator":"Khronos glTF Blender I/O v4.2.60",
		"version":"2.0"
	},
	"scene":0,
	"scenes":[
		{
			"name":"Scene",
			"nodes":[
				0,
				1,
				2,
				3
			]
		}
	],
	"nodes":[
		{
			"mesh":0,
			"name":"Pencere7.005",
			"translation":[
				0,
				0,
				-0.02173924818634987
			]
		},
		{
			"mesh":1,
			"name":"Pencere4.001",
			"translation":[
				0,
				0,
				-0.012071396224200726
			]
		},
		{
			"mesh":2,
			"name":"Building_000.010"
		},
		{
			"mesh":3,
			"name":"Building_014.006",
			"translation":[
				0,
				0,
				-0.020652156323194504
			]
		}
	],
	"materials":[
		{
			"doubleSided":true,
			"name":"PencereSolar",
			"pbrMetallicRoughness":{
				"baseColorFactor":[
					0.9822452664375305,
					0.38132646679878235,
					0.0030353753827512264,
					1
				],
				"metallicFactor":0,
				"roughnessFactor":0.5
			}
		}
	],
	"meshes":[
		{
			"name":"Building_024_Mesh.024",
			"primitives":[
				{
					"attributes":{
						"POSITION":0,
						"NORMAL":1
					},
					"indices":2,
					"material":0
				}
			]
		},
		{
			"name":"Building_021_Mesh.024",
			"primitives":[
				{
					"attributes":{
						"POSITION":3,
						"NORMAL":4
					},
					"indices":5,
					"material":0
				}
			]
		},
		{
			"name":"Building_000_Mesh.004",
			"primitives":[
				{
					"attributes":{
						"POSITION":6,
						"NORMAL":7
					},
					"indices":8,
					"material":0
				}
			]
		},
		{
			"name":"Building_014_Mesh.004",
			"primitives":[
				{
					"attributes":{
						"POSITION":9,
						"NORMAL":10
					},
					"indices":11,
					"material":0
				}
			]
		}
	],
	"accessors":[
		{
			"bufferView":0,
			"componentType":5126,
			"count":56,
			"max":[
				-0.17065224051475525,
				-0.30652162432670593,
				0.06413045525550842
			],
			"min":[
				-0.2097826898097992,
				-0.34782591462135315,
				0.06413045525550842
			],
			"type":"VEC3"
		},
		{
			"bufferView":1,
			"componentType":5126,
			"count":56,
			"type":"VEC3"
		},
		{
			"bufferView":2,
			"componentType":5123,
			"count":84,
			"type":"SCALAR"
		},
		{
			"bufferView":3,
			"componentType":5126,
			"count":36,
			"max":[
				-0.2554348409175873,
				-0.3065217137336731,
				0.05326089262962341
			],
			"min":[
				-0.2771739661693573,
				-0.3500000238418579,
				0.05326089262962341
			],
			"type":"VEC3"
		},
		{
			"bufferView":4,
			"componentType":5126,
			"count":36,
			"type":"VEC3"
		},
		{
			"bufferView":5,
			"componentType":5123,
			"count":54,
			"type":"SCALAR"
		},
		{
			"bufferView":6,
			"componentType":5126,
			"count":48,
			"max":[
				-0.3989131450653076,
				-0.3065217137336731,
				0.06413046270608902
			],
			"min":[
				-0.43804359436035156,
				-0.3478260636329651,
				0.06413046270608902
			],
			"type":"VEC3"
		},
		{
			"bufferView":7,
			"componentType":5126,
			"count":48,
			"type":"VEC3"
		},
		{
			"bufferView":8,
			"componentType":5123,
			"count":72,
			"type":"SCALAR"
		},
		{
			"bufferView":9,
			"componentType":5126,
			"count":32,
			"max":[
				-0.3228261470794678,
				-0.322826087474823,
				0.07500001788139343
			],
			"min":[
				-0.36195656657218933,
				-0.34565216302871704,
				0.07500001788139343
			],
			"type":"VEC3"
		},
		{
			"bufferView":10,
			"componentType":5126,
			"count":32,
			"type":"VEC3"
		},
		{
			"bufferView":11,
			"componentType":5123,
			"count":48,
			"type":"SCALAR"
		}
	],
	"bufferViews":[
		{
			"buffer":0,
			"byteLength":672,
			"byteOffset":0,
			"target":34962
		},
		{
			"buffer":0,
			"byteLength":672,
			"byteOffset":672,
			"target":34962
		},
		{
			"buffer":0,
			"byteLength":168,
			"byteOffset":1344,
			"target":34963
		},
		{
			"buffer":0,
			"byteLength":432,
			"byteOffset":1512,
			"target":34962
		},
		{
			"buffer":0,
			"byteLength":432,
			"byteOffset":1944,
			"target":34962
		},
		{
			"buffer":0,
			"byteLength":108,
			"byteOffset":2376,
			"target":34963
		},
		{
			"buffer":0,
			"byteLength":576,
			"byteOffset":2484,
			"target":34962
		},
		{
			"buffer":0,
			"byteLength":576,
			"byteOffset":3060,
			"target":34962
		},
		{
			"buffer":0,
			"byteLength":144,
			"byteOffset":3636,
			"target":34963
		},
		{
			"buffer":0,
			"byteLength":384,
			"byteOffset":3780,
			"target":34962
		},
		{
			"buffer":0,
			"byteLength":384,
			"byteOffset":4164,
			"target":34962
		},
		{
			"buffer":0,
			"byteLength":96,
			"byteOffset":4548,
			"target":34963
		}
	],
	"buffers":[
		{
			"byteLength":4644,
			"uri":"isiklar.bin"
		}
	]
}
